<svg width="19" height="20" fill="none" xmlns="http://www.w3.org/2000/svg"><path d="M8.238.025C3.695.025 0 3.915 0 8.696c0 4.782 3.695 8.672 8.238 8.672 1.389 0 2.754-.347 3.907-1.016.092.117.195.225.306.322l2.354 2.478c.217.257.482.465.779.61a2.303 2.303 0 0 0 1.901.06c.304-.127.58-.319.812-.562a2.54 2.54 0 0 0 .534-.855 2.645 2.645 0 0 0-.056-2.001 2.523 2.523 0 0 0-.581-.82l-2.354-2.478a2.38 2.38 0 0 0-.376-.322c.635-1.214 1.035-2.626 1.035-4.113C16.5 3.89 12.804 0 8.261 0l-.023.025Zm0 2.477c3.272 0 5.884 2.75 5.884 6.194 0 1.636-.565 3.147-1.553 4.262l-.07.074a2.424 2.424 0 0 0-.307.322c-1.036.991-2.448 1.561-3.978 1.561-3.271 0-5.884-2.75-5.884-6.194s2.613-6.194 5.884-6.194l.024-.025Z" fill="#333"/></svg>