<svg width="19" height="28" fill="none" xmlns="http://www.w3.org/2000/svg"><path d="M8.238.819C3.695.819 0 5.966 0 12.293s3.695 11.474 8.238 11.474a6.4 6.4 0 0 0 3.907-1.344c.092.155.195.297.306.426l2.354 3.278c.217.34.482.616.779.809.296.193.618.299.945.312.327.014.652-.066.956-.234.304-.168.58-.421.812-.744.231-.322.413-.706.534-1.13.12-.423.178-.877.168-1.332a4.46 4.46 0 0 0-.224-1.317 3.491 3.491 0 0 0-.581-1.084l-2.354-3.279a2.726 2.726 0 0 0-.376-.426 14.902 14.902 0 0 0 1.035-5.442C16.5 5.933 12.804.786 8.261.786L8.238.82Zm0 3.278c3.272 0 5.884 3.64 5.884 8.196 0 2.164-.565 4.163-1.553 5.639l-.07.098a3.007 3.007 0 0 0-.307.426c-1.036 1.311-2.448 2.066-3.978 2.066-3.271 0-5.884-3.64-5.884-8.196 0-4.557 2.613-8.196 5.884-8.196l.024-.033Z" fill="#333"/></svg>