<svg width="19" height="20" fill="none" xmlns="http://www.w3.org/2000/svg"><path d="M8.238.333C3.695.333 0 4.143 0 8.825c0 4.683 3.695 8.493 8.238 8.493 1.389 0 2.754-.34 3.907-.995.092.115.195.22.306.316l2.354 2.426c.217.252.482.456.779.598a2.344 2.344 0 0 0 2.713-.492c.231-.239.413-.523.534-.837a2.542 2.542 0 0 0-.056-1.96 2.472 2.472 0 0 0-.581-.803l-2.354-2.427a2.366 2.366 0 0 0-.376-.315c.635-1.189 1.035-2.572 1.035-4.028 0-4.683-3.695-8.493-8.238-8.493l-.023.025Zm0 2.426c3.272 0 5.884 2.694 5.884 6.066 0 1.602-.565 3.082-1.553 4.174l-.07.073c-.112.095-.215.2-.307.315-1.036.97-2.448 1.529-3.978 1.529-3.271 0-5.884-2.694-5.884-6.066 0-3.373 2.613-6.067 5.884-6.067l.024-.024Z" fill="#333"/></svg>