<svg width="265" height="85" fill="none" xmlns="http://www.w3.org/2000/svg"><g clip-path="url('#clip0_12_417')"><path d="m155.443 84.784-14.577-5.899V61.51l14.525-5.898 14.624 5.894V78.88l-14.577 5.9.005.004Zm-10.878-8.416 10.878 4.4 10.878-4.4v-12.33L155.4 59.631l-10.83 4.4v12.336h-.005Z" fill="#E6E6E6"/><path d="m155.443 69.773-13.395-5.265 1.344-3.473 12.051 4.736 12.055-4.736 1.345 3.473-13.4 5.265Z" fill="#E6E6E6"/><path d="M157.293 67.774h-3.7v15.002h3.7V67.774ZM46.992 51.168h-5.844v33.376h5.844V51.168ZM57.207 84.544h-6.163l12.465-33.376h3.909l-.386 4.746-9.825 28.63Z" fill="#E6E6E6"/><path d="m65.325 55.914-.429-4.746h3.933l12.513 33.376h-6.164l-9.853-28.63ZM89.984 51.168l.863 22.669v10.707h-5.844V51.168h4.981Z" fill="#E6E6E6"/><path d="m92.625 51.168 9.415 25.44 9.419-25.44h5.229l-12.58 33.376h-4.137L87.415 51.168h5.21Z" fill="#E6E6E6"/><path d="M119.1 51.168v33.376h-5.868V73.837l.887-22.669h4.981ZM131.995 51.168h-5.844v33.376h5.844V51.168Z" fill="#E6E6E6"/><path d="m182.934 69.552-.048-4.31h7.327c1.835 0 3.251-.403 4.252-1.215 1.001-.811 1.501-1.955 1.501-3.439 0-1.633-.472-2.82-1.42-3.555-.949-.735-2.417-1.1-4.4-1.1h-5.434V84.54h-5.868V51.163h11.307c3.656 0 6.516.73 8.585 2.19 2.069 1.461 3.103 3.743 3.103 6.841 0 1.374-.329 2.637-.992 3.78-.657 1.149-1.635 2.08-2.922 2.796-1.287.72-2.898 1.139-4.824 1.259l-1.773 1.513h-8.394v.01Z" fill="#FF4A03"/><path d="m181.07 84.544 2.66-4.746h7.345c1.878 0 3.299-.466 4.252-1.398.954-.932 1.435-2.138 1.435-3.622 0-1.086-.19-2.018-.567-2.796a4.005 4.005 0 0 0-1.749-1.801c-.787-.418-1.826-.63-3.118-.63h-6.459l.048-4.308h8.37l1.321 1.652c1.835.029 3.341.423 4.514 1.167 1.172.75 2.05 1.715 2.626 2.902.577 1.186.863 2.464.863 3.838 0 3.194-1.02 5.615-3.06 7.268-2.04 1.652-4.862 2.474-8.471 2.474h-10.01ZM233.076 58.282c-1.158-2.435-2.769-4.308-4.833-5.615-2.064-1.307-4.472-1.96-7.232-1.96s-5.086.653-7.164 1.96c-2.079 1.306-3.699 3.18-4.867 5.615-1.168 2.436-1.75 5.347-1.75 8.724v1.72c0 3.376.587 6.278 1.764 8.708 1.177 2.431 2.803 4.3 4.891 5.606 2.083 1.307 4.476 1.96 7.179 1.96 2.703 0 5.167-.653 7.222-1.96 2.054-1.306 3.656-3.175 4.809-5.606 1.154-2.43 1.731-5.332 1.731-8.709v-1.72c0-3.376-.582-6.282-1.74-8.723h-.01Zm-4.152 10.443c0 2.46-.305 4.54-.91 6.236-.606 1.695-1.497 2.978-2.674 3.852-1.178.87-2.603 1.307-4.286 1.307-1.682 0-3.046-.438-4.233-1.307-1.182-.87-2.092-2.157-2.731-3.853-.639-1.695-.954-3.775-.954-6.235v-1.762c0-2.46.315-4.535.944-6.226.63-1.686 1.53-2.964 2.708-3.829 1.177-.864 2.584-1.297 4.219-1.297 1.635 0 3.093.433 4.275 1.297 1.183.865 2.084 2.138 2.708 3.829.62 1.69.934 3.761.934 6.226v1.762ZM251.105 63.177l6.892-12.009h6.779l-9.963 16.549L265 84.544h-6.821l-7.074-12.245-7.098 12.245h-6.803l10.216-16.827-9.987-16.549h6.779l6.893 12.01Z" fill="#FF4A03"/><path d="m4.981 51.168.863 22.669v10.707H0V51.168h4.981Z" fill="#E6E6E6"/><path d="m7.622 51.168 9.415 25.44 9.42-25.44h5.228l-12.58 33.376h-4.137L2.412 51.168h5.21Z" fill="#E6E6E6"/><path d="M34.097 51.168v33.376H28.23V73.837l.887-22.669h4.981Z" fill="#E6E6E6"/><path d="M165.063 28.36c.061.913.123 1.802.185 2.739 17.719-1.389 35.456-2.777 53.218-4.165v1.335c-7.889 1.283-15.779 2.57-23.773 3.872l-5.439.889c-2.907.47-5.753.936-8.666 1.407 1.058 1.264 1.497 2.661 1.235 4.242a4.8 4.8 0 0 1-1.425 2.719c-1.588 1.527-3.9 1.84-5.811.782-1.116-.62-1.883-1.551-2.293-2.766-.405-1.21-.324-2.417.176-3.651-.758.12-1.454.23-2.15.346-2.145.35-4.29.701-6.435 1.042-.267.043-.419.154-.543.404-1.035 2.036-2.35 3.852-4.209 5.207-1.35.98-2.842 1.542-4.534 1.412-1.525-.12-2.836-.778-4.009-1.724-1.625-1.312-2.826-2.97-3.761-4.828-.157-.312-.348-.432-.677-.48-2.664-.418-5.324-.86-7.984-1.293-.148-.024-.296-.038-.501-.067.606 1.499.587 2.95-.138 4.362a4.779 4.779 0 0 1-2.217 2.161 4.896 4.896 0 0 1-5.758-1.09c-.867-.942-1.301-2.066-1.316-3.348-.014-1.283.439-2.397 1.311-3.42l-8.475-1.379-5.525-.898c-8.018-1.307-15.945-2.594-23.887-3.886v-1.336l53.222 4.165.201-2.805c.595-2.421 1.406-3.281 1.458-3.368 1.478-2.267 3.532-3.708 6.149-4.41.344-6.83.682-13.66 1.025-20.516h1.535c.096.995.196 1.984.291 2.974.339 3.473.682 6.946 1.02 10.419.219 2.238.439 4.477.644 6.715.024.279.114.39.391.462 2.521.677 4.504 2.113 5.939 4.308 0 0 .968 1.196 1.516 3.478l.01-.01Z" fill="#FF4A03"/><path d="M136.333 42.92c1.387-.802 2.383-1.873 2.512-3.655 7.536 6.278 12.198 14.074 13.209 23.926-2.446-8.949-7.799-15.611-15.726-20.27h.005ZM174.401 43.209c-7.723 4.693-12.899 11.312-15.249 20.194.228-3.348 1.277-8.195 3.832-12.898 2.169-3.997 5.001-7.446 8.461-10.438.491 1.551 1.516 2.536 2.956 3.142ZM155.367 63.393a73048.02 73048.02 0 0 1-1.95-18.474c1.325.437 2.617.504 3.961.1-.648 6.144-1.296 12.26-1.94 18.374H155.367Z" fill="#FF4A03"/></g><defs><clipPath id="clip0_12_417"><path fill="#fff" d="M0 0h265v85H0z"/></clipPath></defs></svg>