<svg width="186" height="186" fill="none" xmlns="http://www.w3.org/2000/svg"><path d="M185.963 100.097c-.222-5.151-5.262-9.265-15.009-12.23-7.56-2.26-17.158-3.632-27.535-3.854V44.471a4.001 4.001 0 0 0-.556-1.853c-1.038-4.484-6.041-8.116-14.898-10.784-8.338-2.52-19.233-3.891-30.685-3.891-11.414 0-22.198 1.37-30.388 3.89-6.708 2.076-14.75 5.93-14.75 12.564 0 .408.037.815.111 1.223l.408 16.899C28.573 57.923 5.337 73.748.778 97.799A44.267 44.267 0 0 0 0 106.063c0 24.459 19.9 44.36 44.36 44.36 10.191 0 20.049-3.483 27.942-9.932 6.93 1.631 15.083 2.52 23.718 2.594 1.89 10.266 24.126 14.972 44.842 14.972 11.414 0 22.198-1.408 30.388-3.965 6.708-2.075 14.75-5.966 14.75-12.6v-40.691c0-.222 0-.482-.037-.704Zm-50.289-35.132c0 .481-1.779 3.039-9.821 5.484-7.523 2.261-17.937 3.595-28.536 3.595-9.153 0-18.121-.963-25.237-2.78-.111-.036-.185-.036-.296-.073-3.521-2.78-7.412-5.003-11.6-6.56l-.26-10.45a41.057 41.057 0 0 0 8.006 3.075c8.041 2.335 18.455 3.595 29.387 3.595 11.415 0 22.347-1.371 30.685-3.891a44.432 44.432 0 0 0 8.042-3.224v9.71c-.407.518-.37 1-.37 1.519ZM69.115 38.986c7.486-2.297 17.492-3.594 28.165-3.594 10.599 0 21.013 1.297 28.536 3.594 8.042 2.446 9.821 4.966 9.821 5.448 0 .519-1.816 3.076-9.858 5.485-7.523 2.26-17.9 3.557-28.499 3.557-10.228 0-19.938-1.185-27.312-3.335C62 47.843 59.776 45.323 59.59 44.508c0-.074-.037-.074-.037-.074.037-.704 1.742-3.076 9.561-5.448Zm.112 94.427c-15.084 13.712-38.468 12.637-52.18-2.446C3.335 115.884 4.41 92.5 19.493 78.787 26.275 72.6 35.17 69.19 44.36 69.19c3.706 0 7.375.556 10.932 1.631a37.09 37.09 0 0 1 25.275 27.832c.481 2.445.74 4.965.74 7.448.038 10.414-4.372 20.309-12.08 27.313Zm9.413.815a44.747 44.747 0 0 0 7.115-12.192c3.15.259 6.411.445 9.82.482v.667l.223 12.563a115.676 115.676 0 0 1-17.158-1.52Zm9.894-32.538c2.15.149 4.41.223 6.708.26l.222 13.119a124.073 124.073 0 0 1-7.597-.334c.556-2.853.853-5.781.853-8.672 0-1.445-.075-2.89-.186-4.373Zm9.117-7.115h-.37c-3.558 0-7.005-.148-10.192-.37-1.408-4.966-3.632-9.636-6.633-13.787a133.478 133.478 0 0 0 16.787 1.075c11.452 0 22.384-1.371 30.722-3.891a46.78 46.78 0 0 0 8.005-3.187v9.71c-15.898.444-32.241 3.78-38.32 10.45Zm4.892 5.892c0-.037 0-.074.037-.148.333-1 2.965-3.446 10.636-5.596 7.189-2.038 16.565-3.15 26.423-3.15h.63c10.599 0 20.975 1.223 28.536 3.52 7.893 2.373 9.746 4.819 9.783 5.374v.037c-.037.556-1.89 3.113-10.117 5.559-7.597 2.261-17.603 3.484-28.165 3.484-10.228 0-19.938-1.186-27.313-3.298-7.967-2.298-10.154-4.855-10.376-5.633l-.074-.149Zm66.558 46.584c-7.486 2.335-17.529 3.632-28.202 3.632-10.71 0-20.716-1.26-28.128-3.521-7.819-2.409-9.45-4.892-9.45-5.448v-.074l-.185-10.747a48.264 48.264 0 0 0 9.227 3.372c7.783 2.039 17.678 3.187 27.832 3.187 11.451 0 22.309-1.371 30.611-3.891 2.705-.815 5.299-1.89 7.782-3.15v11.118h.037c0 .519-1.704 3.076-9.524 5.522Zm9.561-27.276h-.037c0 .371-.222.816-.222 1.223 0 .519-1.742 3.039-9.747 5.485-7.597 2.298-17.714 3.558-28.424 3.558-20.531 0-34.354-4.633-37.245-8.227l-.037-3.113-.148-8.524a45.467 45.467 0 0 0 8.079 3.113c8.042 2.335 18.456 3.595 29.388 3.595 11.266 0 22.013-1.334 30.277-3.78a42.483 42.483 0 0 0 8.116-3.187v9.857Z" fill="#E6E6E6"/><path d="M57.85 111.326c-1.705-6.041-7.227-10.191-13.49-10.191-3.632 0-6.597-2.928-6.597-6.56.038-3.669 2.965-6.597 6.597-6.597 3.632 0 6.596 2.965 6.596 6.597a3.717 3.717 0 0 0 3.706 3.706 3.717 3.717 0 0 0 3.706-3.706c0-6.263-4.15-11.785-10.19-13.49v-1.667a3.717 3.717 0 0 0-3.707-3.706 3.717 3.717 0 0 0-3.706 3.706v1.593c-7.449 2.002-11.896 9.673-9.895 17.122a13.96 13.96 0 0 0 13.49 10.376c3.632 0 6.596 2.928 6.596 6.56 0 3.632-2.927 6.596-6.559 6.596s-6.596-2.927-6.596-6.559a3.717 3.717 0 0 0-3.706-3.706 3.717 3.717 0 0 0-3.706 3.706 14.076 14.076 0 0 0 10.376 13.526v3.225a3.716 3.716 0 0 0 3.706 3.705 3.716 3.716 0 0 0 3.706-3.705v-3.262c7.449-2.112 11.785-9.82 9.672-17.269Z" fill="#E6E6E6"/></svg>