<svg width="13" height="13" fill="none" xmlns="http://www.w3.org/2000/svg"><path d="M12.886 2.583 8.943 6.5l3.943 3.917c.07-.149.114-.313.114-.49V3.073c0-.176-.043-.34-.114-.49ZM11.857 1.93H1.143c-.176 0-.341.043-.49.114l5.04 5.014c.445.445 1.17.445 1.615 0l5.039-5.014a1.129 1.129 0 0 0-.49-.114ZM.115 2.583a1.13 1.13 0 0 0-.115.49v6.855c0 .176.043.34.115.49L4.057 6.5.115 2.583Z" fill="#4444FC"/><path d="m8.404 7.039-.558.557a1.906 1.906 0 0 1-2.692 0l-.558-.557-3.943 3.917c.149.071.314.114.49.114h10.714c.176 0 .341-.043.49-.114L8.404 7.039Z" fill="#4444FC"/></svg>