<svg width="503" height="532" fill="none" xmlns="http://www.w3.org/2000/svg"><g opacity=".3" clip-path="url('#clip0_144_307')"><path d="m220.913 39.557 66.672-38.434 66.672 38.434v76.851l-66.672 38.433-66.672-38.433V39.557Z" fill="#4444FC"/><path d="M367.701 116.973V38.991l.487-.279L435.355 0 503 38.991v77.982l-.487.279-67.158 38.713-67.646-38.992h-.008Zm1.955-76.859v75.728l65.699 37.868 65.698-37.868V40.114l-65.698-37.86-65.699 37.868v-.008ZM73.15 39.557l66.673-38.434 66.672 38.434v76.851l-66.672 38.433-66.672-38.433V39.557ZM147.762 163.699l66.672-38.426 66.672 38.426v76.859l-66.672 38.426-66.672-38.426v-76.859Z" fill="#FF4A03"/><path d="m295.532 163.699 66.672-38.426 66.672 38.426v76.859l-66.672 38.426-66.672-38.426v-76.859ZM0 163.699l66.672-38.426 66.672 38.426v76.859l-66.672 38.426L0 240.558v-76.859Z" fill="#4444FC"/><path d="m220.913 290.773 66.672-38.434 66.672 38.434v76.851l-66.672 38.433-66.672-38.433v-76.851Z" fill="#FF4A03"/><path d="M367.701 368.189v-77.982l.487-.279 67.159-38.712 67.645 38.991v77.982l-.487.279-67.158 38.713-67.646-38.992Zm1.955-76.859v75.728l65.699 37.868 65.698-37.868V291.33l-65.698-37.868-65.699 37.868ZM72.177 368.189v-77.982l.487-.279 67.159-38.712 67.645 38.991v77.982l-.486.279-67.159 38.713-67.646-38.992Zm1.955-76.859v75.728l65.699 37.868 65.698-37.868V291.33l-65.698-37.868-65.699 37.868Z" fill="#4444FC"/><path d="M146.789 493.009v-77.982l.486-.279 67.159-38.713 67.645 38.992v77.982l-.486.279L214.434 532l-67.645-38.991Zm1.954-76.859v75.728l65.699 37.868 65.699-37.868V416.15l-65.699-37.868-65.699 37.868Z" fill="#FF4A03"/></g><defs><clipPath id="clip0_144_307"><path fill="#fff" d="M0 0h503v532H0z"/></clipPath></defs></svg>