<svg width="281" height="578" fill="none" xmlns="http://www.w3.org/2000/svg"><g clip-path="url('#clip0_10_139')" fill-opacity=".3"><path d="m157.282 274.42-37.176 21.416-37.172-21.416v-42.827l37.172-21.416 37.176 21.416v42.827Z" fill="url('#paint0_linear_10_139')"/><path d="M75.435 231.281v43.455l-.27.158-37.448 21.573L0 274.736v-43.455l.27-.157 37.447-21.57 37.718 21.727Zm-1.09 42.828v-42.201l-36.632-21.1-36.623 21.1v42.201l36.627 21.1 36.632-21.1h-.004ZM281 301.275v43.455l-.271.158-37.446 21.573-37.718-21.727V301.28l.271-.158 37.447-21.57L281 301.28v-.005Zm-1.09 42.828v-42.201l-36.632-21.1-36.627 21.1v42.201l36.627 21.1 36.632-21.1ZM198.612 21.727v43.455l-.271.158-37.447 21.573-37.717-21.727V21.727l.27-.157L160.894 0l37.718 21.727Zm-1.091 42.828v-42.2L160.894 1.253l-36.627 21.1v42.2l36.627 21.101 36.632-21.1h-.005ZM239.666 274.42l-37.172 21.416-37.172-21.416v-42.827l37.172-21.416 37.172 21.416v42.827ZM198.067 205.24l-37.173 21.416-37.176-21.416v-42.827l37.176-21.416 37.173 21.416v42.827Z" fill="#FF4A03"/><path d="m115.678 205.24-37.172 21.416-37.177-21.416v-42.827l37.177-21.416 37.172 21.416v42.827ZM280.455 205.24l-37.172 21.416-37.177-21.416v-42.827l37.177-21.416 37.172 21.416v42.827ZM198.612 301.275v43.455l-37.718 21.727-37.717-21.727v-43.455l37.717-21.727 37.718 21.727Zm-1.091 42.828v-42.201l-36.631-21.1-36.631 21.1v42.201l36.631 21.1 36.631-21.1Z" fill="#4444FC"/><path d="m115.678 344.419-37.172 21.415-37.177-21.415v-42.828l37.177-21.416 37.172 21.416v42.828ZM157.278 414.412l-37.172 21.416-37.172-21.416v-42.827l37.172-21.416 37.172 21.416v42.827Z" fill="#FF4A03"/><path d="m239.666 414.412-37.172 21.416-37.172-21.416v-42.827l37.172-21.416 37.172 21.416v42.827Z" fill="url('#paint1_linear_10_139')"/><path d="m157.278 134.428-37.172 21.416-37.172-21.416V91.601l37.172-21.416L157.278 91.6v42.827Z" fill="#FF4A03"/><path d="M75.435 91.29v43.454l-.27.158-37.448 21.573L0 134.744V91.289l.27-.157 37.447-21.57 37.718 21.727Zm-1.09 42.827v-42.2L37.713 70.815 1.09 91.916v42.201l36.627 21.1 36.632-21.1h-.004ZM240.212 91.29v43.454l-.271.158-37.447 21.569-37.717-21.727V91.289l.27-.157 37.447-21.574 37.718 21.727v.004Zm-1.091 42.827v-42.2L202.49 70.815l-36.631 21.1v42.201l36.631 21.1 36.631-21.1ZM198.067 485.224l-37.173 21.416-37.176-21.416v-42.827l37.176-21.416 37.173 21.416v42.827Z" fill="#4444FC"/><path d="M116.223 442.081v43.455l-37.717 21.727-37.718-21.727v-43.455l37.718-21.727 37.717 21.727Zm-1.09 42.828v-42.201l-36.631-21.1-36.627 21.1v42.201l36.627 21.1 36.631-21.1ZM157.823 512.814v43.455l-37.717 21.727-37.718-21.727v-43.455l37.718-21.727 37.717 21.727Zm-1.09 42.828v-42.201l-36.631-21.1-36.628 21.1v42.201l36.628 21.1 36.631-21.1Z" fill="#FF4A03"/><path d="M281 442.081v43.455l-37.717 21.727-37.718-21.727v-43.455l37.718-21.727L281 442.081Zm-1.09 42.828v-42.201l-36.632-21.1-36.627 21.1v42.201l36.627 21.1 36.632-21.1ZM75.435 512.814v43.455l-37.718 21.727L0 556.273v-43.455l37.717-21.727 37.718 21.727v-.004Zm-1.09 42.828v-42.201l-36.632-21.1-36.627 21.1v42.201l36.627 21.1 36.632-21.1Z" fill="#4444FC"/></g><defs><linearGradient id="paint0_linear_10_139" x1="120.106" y1="295.836" x2="120.106" y2="210.177" gradientUnits="userSpaceOnUse"><stop stop-color="#fff"/><stop offset=".99" stop-color="#fff"/></linearGradient><linearGradient id="paint1_linear_10_139" x1="202.494" y1="435.828" x2="202.494" y2="350.169" gradientUnits="userSpaceOnUse"><stop stop-color="#fff"/><stop offset=".99" stop-color="#fff"/></linearGradient><clipPath id="clip0_10_139"><path fill="#fff" d="M0 0h281v578H0z"/></clipPath></defs></svg>