<svg width="182" height="57" fill="none" xmlns="http://www.w3.org/2000/svg"><g clip-path="url('#clip0_4_6')"><path d="m106.758 56.855-10.01-3.956v-11.65l9.975-3.956 10.045 3.953V52.9l-10.01 3.956Zm-7.47-5.646 7.47 2.951 7.471-2.95v-8.272l-7.503-2.953-7.438 2.95v8.274Z" fill="#FF4A03"/><path d="m106.758 46.788-9.201-3.53.922-2.33 8.279 3.18 8.277-3.18.925 2.33-9.202 3.53Z" fill="#FF4A03"/><path d="M108.027 45.448h-2.54v10.06h2.54v-10.06Z" fill="#FF4A03"/><path d="M32.275 34.313H28.26v22.38h4.015v-22.38ZM39.288 56.693h-4.232l8.559-22.38h2.687l-.263 3.181-6.75 19.2Z" fill="#333"/><path d="m44.867 37.494-.298-3.18h2.703l8.592 22.38H51.63l-6.764-19.2ZM61.8 34.313l.594 15.201v7.18h-4.015v-22.38h3.42Z" fill="#333"/><path d="m63.611 34.313 6.468 17.06 6.469-17.06h3.593l-8.64 22.38h-2.843l-8.624-22.38h3.577Z" fill="#333"/><path d="M81.796 34.313v22.38h-4.031v-7.179l.61-15.2h3.421ZM90.653 34.313h-4.015v22.38h4.015v-22.38Z" fill="#333"/><path d="m125.637 46.64-.033-2.89h5.031c1.26 0 2.233-.272 2.921-.814.688-.542 1.032-1.312 1.032-2.306 0-1.097-.325-1.89-.975-2.382-.651-.492-1.659-.738-3.024-.738h-3.732v19.183h-4.031v-22.38h7.763c2.51 0 4.475.49 5.899 1.468 1.421.978 2.131 2.509 2.131 4.587 0 .923-.226 1.77-.68 2.536-.454.77-1.123 1.393-2.007 1.875-.884.481-1.989.764-3.311.846l-1.22 1.015h-5.764Z" fill="#4444FC"/><path d="m124.355 56.693 1.827-3.18h5.047c1.29 0 2.265-.313 2.921-.94.656-.623.983-1.435.983-2.427 0-.727-.131-1.354-.389-1.874a2.675 2.675 0 0 0-1.204-1.206c-.543-.283-1.255-.423-2.139-.423h-4.437l.032-2.89h5.748l.906 1.108c1.26.02 2.295.283 3.101.782.806.503 1.408 1.15 1.803 1.944.395.793.594 1.652.594 2.575 0 2.142-.701 3.766-2.101 4.873-1.4 1.108-3.34 1.66-5.818 1.66h-6.874v-.002ZM160.074 39.086c-.795-1.634-1.902-2.89-3.318-3.765-1.417-.876-3.072-1.315-4.969-1.315-1.898 0-3.494.44-4.921 1.315s-2.542 2.13-3.343 3.765c-.801 1.634-1.204 3.583-1.204 5.849v1.153c0 2.266.403 4.212 1.212 5.84.806 1.63 1.927 2.883 3.359 3.758 1.433.875 3.075 1.314 4.929 1.314s3.547-.439 4.961-1.314c1.411-.875 2.512-2.129 3.302-3.758.793-1.628 1.188-3.574 1.188-5.84v-1.153c0-2.266-.398-4.215-1.196-5.85Zm-2.851 7.002c0 1.65-.207 3.043-.623 4.18-.417 1.137-1.03 1.999-1.836 2.583-.806.585-1.79.876-2.945.876-1.156 0-2.093-.291-2.905-.876-.812-.584-1.438-1.443-1.876-2.583-.438-1.137-.655-2.53-.655-4.18v-1.185c0-1.65.215-3.04.647-4.172.433-1.132 1.051-1.989 1.86-2.568.806-.579 1.773-.867 2.897-.867 1.123 0 2.125.29 2.937.867.811.58 1.432 1.436 1.86 2.568.427 1.131.639 2.522.639 4.172v1.185ZM172.455 42.367l4.732-8.054h4.657l-6.842 11.098L182 56.693h-4.687l-4.858-8.21-4.875 8.21h-4.671l7.014-11.282-6.858-11.098h4.657l4.733 8.054Z" fill="#4444FC"/><path d="m3.42 34.313.595 15.201v7.18H0v-22.38h3.42Z" fill="#333"/><path d="m5.235 34.313 6.465 17.06 6.469-17.06h3.593l-8.64 22.38H10.28l-8.624-22.38h3.58Z" fill="#333"/><path d="M23.417 34.313v22.38h-4.03v-7.179l.61-15.2h3.42Z" fill="#333"/><path d="M113.361 19.017c.043.61.083 1.208.126 1.837l36.55-2.794v.896l-16.325 2.594-3.735.595-5.953.944c.726.846 1.027 1.785.847 2.845a3.167 3.167 0 0 1-.981 1.822 3.412 3.412 0 0 1-3.988.523 3.242 3.242 0 0 1-1.572-1.856c-.28-.814-.223-1.62.121-2.448l-1.478.23c-1.473.232-2.946.47-4.421.698a.451.451 0 0 0-.373.27c-.71 1.366-1.613 2.583-2.892 3.492-.927.659-1.951 1.034-3.112.947-1.048-.08-1.945-.521-2.754-1.156-1.118-.88-1.941-1.99-2.583-3.236-.107-.209-.239-.288-.465-.323-1.83-.28-3.657-.576-5.485-.867-.102-.016-.201-.026-.343-.045.413 1.008.403 1.98-.094 2.927a3.248 3.248 0 0 1-1.521 1.45 3.416 3.416 0 0 1-3.956-.73 3.213 3.213 0 0 1-.903-2.248c-.008-.86.3-1.608.9-2.293l-5.82-.925-3.795-.603-16.406-2.607v-.896c12.192.933 24.374 1.864 36.553 2.794l.137-1.882c.408-1.624.964-2.203 1.002-2.258 1.016-1.52 2.427-2.488 4.224-2.956.234-4.58.471-9.162.705-13.758h1.053c.067.669.134 1.33.199 1.994l.701 6.988c.151 1.502.301 3.001.441 4.503.019.188.081.262.269.31 1.73.454 3.095 1.417 4.082 2.89 0 0 .663.8 1.042 2.332h.003Z" fill="#4444FC"/><path d="M93.63 28.782c.955-.54 1.638-1.256 1.726-2.451 5.176 4.212 8.376 9.436 9.072 16.044-1.679-6.002-5.355-10.468-10.797-13.593ZM119.776 28.975c-5.302 3.149-8.86 7.586-10.473 13.54.156-2.245.879-5.494 2.634-8.649 1.491-2.678 3.434-4.992 5.81-6.999.336 1.04 1.04 1.703 2.029 2.108ZM106.705 42.51c-.447-4.117-.893-8.236-1.341-12.388.911.294 1.797.336 2.719.069l-1.333 12.322h-.045v-.003Z" fill="#4444FC"/></g><defs><clipPath id="clip0_4_6"><path fill="#fff" d="M0 0h182v57H0z"/></clipPath></defs></svg>