<svg width="13" height="13" fill="none" xmlns="http://www.w3.org/2000/svg"><g clip-path="url('#clip0_12_503')" fill="#4444FC"><path d="M6.5 1.171c1.736 0 1.941.007 2.627.038.708.032 1.438.194 1.954.71.52.521.678 1.244.71 1.954.031.686.038.891.038 2.627 0 1.736-.007 1.941-.038 2.627-.032.704-.197 1.44-.71 1.954-.521.521-1.243.677-1.954.71-.686.031-.891.038-2.627.038-1.736 0-1.941-.007-2.627-.038-.699-.032-1.445-.201-1.954-.71-.518-.518-.678-1.248-.71-1.954-.031-.686-.038-.891-.038-2.627 0-1.736.007-1.941.038-2.627.032-.702.199-1.443.71-1.954.52-.52 1.245-.678 1.954-.71.686-.031.891-.038 2.627-.038ZM6.5 0C4.735 0 4.513.007 3.82.04 2.815.084 1.818.363 1.091 1.09.361 1.82.085 2.817.039 3.82.007 4.513 0 4.735 0 6.5c0 1.765.007 1.987.04 2.68.045 1.004.326 2.004 1.05 2.729.73.728 1.727 1.006 2.73 1.052.693.031.915.039 2.68.039 1.765 0 1.987-.008 2.68-.04 1.004-.045 2.003-.325 2.729-1.05.73-.73 1.006-1.725 1.052-2.73.031-.693.039-.915.039-2.68 0-1.765-.008-1.987-.04-2.68-.045-1.005-.325-2.003-1.05-2.729C11.181.364 10.18.085 9.18.039 8.487.007 8.265 0 6.5 0Z"/><path d="M6.5 3.162a3.338 3.338 0 1 0 0 6.676 3.338 3.338 0 0 0 0-6.676Zm0 5.505a2.167 2.167 0 1 1 0-4.334 2.167 2.167 0 0 1 0 4.334ZM9.97 3.81a.78.78 0 1 0 0-1.56.78.78 0 0 0 0 1.56Z"/></g><defs><clipPath id="clip0_12_503"><path fill="#fff" d="M0 0h13v13H0z"/></clipPath></defs></svg>