<svg width="316" height="335" fill="none" xmlns="http://www.w3.org/2000/svg"><g clip-path="url('#clip0_7_70')" fill-opacity=".3"><path d="M138.784 24.909 180.669.707l41.886 24.202v48.393L180.67 97.503l-41.886-24.201V24.909Z" fill="#4444FC"/><path d="M231.001 73.658V24.553l.306-.176L273.503 0 316 24.553v49.105l-.306.176-42.191 24.377-42.497-24.553h-.005Zm1.228-48.398v47.686l41.274 23.845 41.274-23.845V25.26L273.503 1.42l-41.274 23.845v-.005ZM45.956 24.909 87.84.707l41.885 24.202v48.393L87.841 97.503 45.956 73.303V24.909ZM92.829 103.081l41.885-24.196 41.885 24.196v48.398l-41.885 24.197-41.885-24.197v-48.398Z" fill="#FF4A03"/><path d="m185.662 103.081 41.885-24.196 41.886 24.196v48.398l-41.886 24.197-41.885-24.197v-48.398ZM0 103.081l41.885-24.196 41.886 24.196v48.398l-41.886 24.197L0 151.479v-48.398Z" fill="#4444FC"/><path d="m138.784 183.099 41.886-24.201 41.885 24.201v48.394l-41.885 24.201-41.886-24.201v-48.394Z" fill="#FF4A03"/><path d="M231.001 231.849v-49.106l.306-.175 42.191-24.377 42.497 24.552v49.106l-.306.175-42.191 24.377-42.497-24.552Zm1.228-48.399v47.686l41.274 23.846 41.274-23.846V183.45l-41.274-23.845-41.274 23.845ZM45.344 231.849v-49.106l.306-.175 42.191-24.377 42.497 24.552v49.106l-.306.175-42.191 24.377-42.497-24.552Zm1.228-48.399v47.686l41.274 23.846 41.274-23.846V183.45l-41.274-23.845-41.274 23.845Z" fill="#4444FC"/><path d="M92.217 310.447v-49.105l.306-.176 42.191-24.377 42.497 24.553v49.105l-.306.176L134.714 335l-42.497-24.553Zm1.228-48.398v47.686l41.274 23.846 41.274-23.846v-47.686l-41.274-23.845-41.274 23.845Z" fill="#FF4A03"/></g><defs><clipPath id="clip0_7_70"><path fill="#fff" d="M0 0h316v335H0z"/></clipPath></defs></svg>