<svg width="14" height="14" fill="none" xmlns="http://www.w3.org/2000/svg"><g clip-path="url('#clip0_12_495')" fill="#4444FC"><path d="M11.95 2.05A6.954 6.954 0 0 0 7 0C5.13 0 3.372.728 2.05 2.05A6.954 6.954 0 0 0 0 7c0 1.87.728 3.628 2.05 4.95A6.954 6.954 0 0 0 7 14c1.87 0 3.628-.728 4.95-2.05A6.954 6.954 0 0 0 14 7c0-1.87-.728-3.628-2.05-4.95ZM7 12.626A5.632 5.632 0 0 1 1.374 7v-.025a5.632 5.632 0 0 1 5.55-5.6l.019-.001H7A5.632 5.632 0 0 1 12.626 7 5.632 5.632 0 0 1 7 12.626Z"/><path d="M11.274 7.338a.414.414 0 1 1 0-.829h.499a4.806 4.806 0 0 0-4.416-4.293v.434a.414.414 0 0 1-.828 0v-.425a4.806 4.806 0 0 0-4.307 4.342h.447a.414.414 0 0 1 0 .828h-.45a4.805 4.805 0 0 0 4.367 4.385v-.526a.414.414 0 0 1 .828 0v.526a4.805 4.805 0 0 0 4.372-4.442h-.512ZM8.677 5.909 7.293 7.293a.414.414 0 0 1-.586 0L4.298 4.884a.414.414 0 1 1 .586-.586L7 6.414l1.091-1.09a.414.414 0 1 1 .586.585Z"/></g><defs><clipPath id="clip0_12_495"><path fill="#fff" d="M0 0h14v14H0z"/></clipPath></defs></svg>