<svg width="186" height="186" fill="none" xmlns="http://www.w3.org/2000/svg"><g clip-path="url('#clip0_54_288')" fill="#E6E6E6"><path d="M13.79 45.17 91.183.487a3.632 3.632 0 0 1 3.633 0L172.21 45.17a3.632 3.632 0 0 1 1.816 3.146v89.367a3.632 3.632 0 0 1-1.816 3.146l-77.394 44.684a3.632 3.632 0 0 1-3.633 0l-77.395-44.684a3.633 3.633 0 0 1-1.816-3.146V48.316c0-1.298.692-2.497 1.816-3.146ZM93 7.828 22.871 48.316 41.17 58.88l70.129-40.489L93 7.828Zm0 80.977 70.129-40.49-16.561-9.56L76.44 79.244 93 88.804Zm25.563-66.219L48.435 63.075l20.74 11.974 70.128-40.489-20.74-11.974ZM65.542 81.341l-20.74-11.974v21.55l8.008-1.756a3.631 3.631 0 0 1 3.58 1.237l9.151 11.091V81.341Zm101.22-26.733L96.633 95.097v80.978l70.129-40.489V54.608ZM89.367 176.075V95.097l-16.56-9.561V111.6a3.633 3.633 0 0 1-6.435 2.312l-14.174-17.18-10.252 2.248a3.633 3.633 0 0 1-4.41-3.55V65.173L19.239 54.608v80.978l70.128 40.489Z"/><path d="m137.868 134.104 16.581-9.573a3.633 3.633 0 0 1 3.633 6.292l-16.582 9.573a3.632 3.632 0 1 1-3.632-6.292ZM158.082 114.475l-9.119 5.265a3.632 3.632 0 1 1-3.633-6.292l9.119-5.265a3.632 3.632 0 1 1 3.633 6.292Z"/></g><defs><clipPath id="clip0_54_288"><path fill="#fff" transform="matrix(-1 0 0 1 186 0)" d="M0 0h186v186H0z"/></clipPath></defs></svg>