<svg width="80" height="80" fill="none" xmlns="http://www.w3.org/2000/svg"><path d="M40 76.667A36.561 36.561 0 0 1 3.333 40 36.561 36.561 0 0 1 40 3.333c5.333 0 10.333 1 15 3.334 1.667.666 2.333 2.666 1.667 4.333C56 12.667 54 13.333 52.333 12.667 48.333 11 44.333 10 40 10c-16.667 0-30 13.333-30 30s13.333 30 30 30 30-13.333 30-30v-3c0-2 1.333-3.333 3.333-3.333S76.667 35 76.667 37v3A36.561 36.561 0 0 1 40 76.667Z" fill="#4444FC"/><path d="M40 50c-1 0-1.667-.333-2.333-1l-10-10c-1.334-1.333-1.334-3.333 0-4.667C29 33 31 33 32.333 34.333L40 42l31-31c1.333-1.333 3.333-1.333 4.667 0 1.333 1.333 1.333 3.333 0 4.667L42.333 49c-.666.667-1.333 1-2.333 1Z" fill="#4444FC"/></svg>