<svg width="71" height="71" fill="none" xmlns="http://www.w3.org/2000/svg"><path d="m62.327 33.281 7.376-16.86c.641-1.464-.433-3.108-2.032-3.108H52.139V6.655a2.219 2.219 0 0 0-2.218-2.218H14.039C13.123 1.854 10.657 0 7.765 0a6.664 6.664 0 0 0-6.657 6.656v62.125a2.219 2.219 0 0 0 4.438 0V6.656c0-1.223.995-2.218 2.219-2.218 1.223 0 2.218.995 2.218 2.218v62.125a2.219 2.219 0 0 0 4.438 0V44.375h13.312v6.656c0 1.226.994 2.219 2.219 2.219h37.719c1.597 0 2.674-1.643 2.032-3.108l-7.376-16.86ZM14.42 8.875h33.281v31.063H14.421V8.875Zm17.75 39.938v-4.438h17.75a2.219 2.219 0 0 0 2.218-2.219V17.75h12.14l-6.406 14.642a2.218 2.218 0 0 0 0 1.779l6.405 14.642H32.171Z" fill="#4444FC"/><path d="M36.125 35.245c1.623.853 3.53-.526 3.22-2.339l-.968-5.639 4.097-3.993c1.315-1.281.588-3.52-1.23-3.784l-5.661-.823-2.532-5.13c-.812-1.646-3.167-1.647-3.98 0l-2.531 5.13-5.662.823c-1.816.264-2.544 2.503-1.23 3.784l4.098 3.994-.968 5.638c-.31 1.81 1.595 3.194 3.22 2.34l5.064-2.663 5.063 2.662Zm-8.213-6.02.404-2.357a2.219 2.219 0 0 0-.638-1.964l-1.713-1.67 2.367-.343a2.219 2.219 0 0 0 1.67-1.214l1.06-2.145 1.058 2.145a2.218 2.218 0 0 0 1.67 1.214l2.367.344-1.712 1.67a2.219 2.219 0 0 0-.638 1.963l.404 2.357c-3.492-1.836-2.808-1.835-6.3 0Z" fill="#4444FC"/></svg>