<svg width="95" height="95" fill="none" xmlns="http://www.w3.org/2000/svg"><path d="M21.13 78.72H6.138v-6.703a8.943 8.943 0 0 1 8.928-8.935h5.322a2.226 2.226 0 1 0 0-4.454h-5.322a13.4 13.4 0 0 0-13.381 13.39v7.726a3.433 3.433 0 0 0 3.429 3.429H21.13a2.226 2.226 0 1 0 0-4.454ZM18.926 52.947a11.945 11.945 0 1 0-11.95-11.943 11.957 11.957 0 0 0 11.95 11.943Zm0-19.436a7.491 7.491 0 1 1-.01 14.983 7.491 7.491 0 0 1 .01-14.983ZM79.934 58.628h-5.121a2.226 2.226 0 1 0 0 4.453h5.12a8.942 8.942 0 0 1 8.93 8.936v6.702H74.07a2.227 2.227 0 0 0 0 4.454h15.816a3.433 3.433 0 0 0 3.43-3.43v-7.725a13.4 13.4 0 0 0-13.382-13.39ZM76.074 52.947a11.945 11.945 0 1 0-11.949-11.943 11.957 11.957 0 0 0 11.95 11.943Zm0-19.436a7.491 7.491 0 1 1-.009 14.983 7.491 7.491 0 0 1 .01-14.983ZM52.454 47.892h-9.907a16.572 16.572 0 0 0-16.55 16.55v9.925a3.777 3.777 0 0 0 3.772 3.773h35.47a3.776 3.776 0 0 0 3.772-3.773v-9.921a16.572 16.572 0 0 0-16.557-16.554Zm12.098 25.792H30.447v-9.238a12.114 12.114 0 0 1 12.098-12.098h9.91a12.114 12.114 0 0 1 12.097 12.098v9.238ZM47.5 41.235a14.704 14.704 0 1 0-14.703-14.702A14.72 14.72 0 0 0 47.5 41.235Zm0-24.954a10.25 10.25 0 1 1-10.25 10.252A10.262 10.262 0 0 1 47.5 16.281Z" fill="#FF4A03"/></svg>