<svg width="89" height="332" fill="none" xmlns="http://www.w3.org/2000/svg"><g clip-path="url('#clip0_54_293')" fill-opacity=".5"><path d="m.64 140.806 43.86-25.199 43.86 25.199v50.393L44.5 216.393.64 191.199v-50.393Z" fill="#E6E6E6"/><path d="M0 76.698V25.566l.32-.186L44.5 0 89 25.566v51.132l-.32.185-44.18 25.38L0 76.697Zm1.287-50.394V75.96l43.218 24.828 43.22-24.828V26.304L44.5 1.477 1.287 26.304ZM0 306.434v-51.132l.32-.186 44.18-25.379L89 255.302v51.132l-.32.186L44.5 332 0 306.434Zm1.287-50.393v49.655l43.218 24.827 43.22-24.827v-49.655l-43.22-24.828-43.218 24.833v-.005Z" fill="#FF4A03"/></g><defs><clipPath id="clip0_54_293"><path fill="#fff" d="M0 0h89v332H0z"/></clipPath></defs></svg>