<svg width="93" height="349" fill="none" xmlns="http://www.w3.org/2000/svg"><g clip-path="url('#clip0_54_284')" fill-opacity=".5"><path d="m.67 148.016 45.83-26.49 45.83 26.49v52.974L46.5 227.474.67 200.99v-52.974Z" fill="#FF4A03"/><path d="M0 80.625v-53.75l.335-.195L46.5 0 93 26.875v53.75l-.335.195L46.5 107.5 0 80.625ZM1.344 27.65V79.85l45.162 26.098 45.16-26.098V27.65L46.5 1.552l-45.156 26.1ZM0 322.125v-53.75l.335-.195L46.5 241.5 93 268.375v53.75l-.335.195L46.5 349 0 322.125Zm1.344-52.974v52.198l45.162 26.099 45.16-26.099v-52.198l-45.16-26.098-45.162 26.104v-.006Z" fill="#4444FC"/></g><defs><clipPath id="clip0_54_284"><path fill="#fff" d="M0 0h93v349H0z"/></clipPath></defs></svg>