<svg width="410" height="272" fill="none" xmlns="http://www.w3.org/2000/svg"><g clip-path="url('#clip0_54_252')"><path d="m206.227 272-47.128-18.924V197.34l46.964-18.925 47.293 18.912v55.749L206.227 272Zm-35.172-27.008 35.172 14.118 35.173-14.118v-39.569l-35.325-14.13-35.02 14.117v39.582Z" fill="#FF4A03"/><path d="m206.227 223.842-43.32-16.888 4.352-11.145 38.968 15.205 38.981-15.205 4.34 11.145-43.321 16.888Z" fill="#FF4A03"/><path d="M212.212 217.428h-11.957v48.133h11.957v-48.133Z" fill="#FF4A03"/><path d="M237.326 90.979c.202 2.922.392 5.78.594 8.791C295.209 95.318 352.56 90.865 410 86.4v4.288c-25.519 4.124-51.013 8.235-76.861 12.409l-17.586 2.847c-9.4 1.518-18.598 2.998-28.024 4.516 3.416 4.048 4.833 8.538 3.985 13.611-.569 3.403-2.113 6.338-4.618 8.716-5.136 4.895-12.614 5.907-18.775 2.505-3.606-1.986-6.086-4.972-7.402-8.881-1.316-3.896-1.05-7.754.57-11.714-2.455.393-4.707.747-6.959 1.101-6.933 1.113-13.867 2.252-20.812 3.34-.861.139-1.354.493-1.759 1.29-3.34 6.54-7.591 12.359-13.614 16.711-4.365 3.149-9.185 4.946-14.651 4.528-4.934-.379-9.16-2.492-12.968-5.528-5.263-4.212-9.135-9.525-12.158-15.483-.507-1-1.126-1.379-2.189-1.544-8.616-1.341-17.22-2.757-25.823-4.149-.481-.076-.949-.126-1.619-.215 1.948 4.82 1.897 9.475-.443 14.004-1.607 3.099-4.024 5.426-7.161 6.932-6.339 3.061-13.867 1.644-18.624-3.492-2.809-3.023-4.213-6.628-4.251-10.752-.038-4.111 1.417-7.691 4.238-10.968-9.236-1.492-18.256-2.947-27.404-4.427l-17.864-2.884C51.29 98.973 25.67 94.837-.012 90.688v-4.289c57.401 4.466 114.753 8.919 172.091 13.371.216-3.023.431-5.958.646-9.006 1.923-7.767 4.542-10.538 4.719-10.803 4.782-7.274 11.425-11.904 19.889-14.143 1.101-21.91 2.214-43.832 3.315-65.818h4.959c.317 3.2.633 6.363.937 9.538l3.302 33.434c.708 7.185 1.417 14.358 2.075 21.543.088.898.379 1.252 1.265 1.48 8.148 2.176 14.575 6.78 19.218 13.826 0 0 3.125 3.833 4.909 11.158h.013Z" fill="#4444FC"/><path d="M144.435 137.695c4.491-2.58 7.705-6.009 8.123-11.726 24.367 20.151 39.436 45.147 42.713 76.76-7.908-28.716-25.216-50.082-50.836-65.034ZM267.526 138.619c-24.962 15.066-41.714 36.292-49.305 64.78.734-10.74 4.138-26.287 12.399-41.378 7.022-12.814 16.169-23.883 27.354-33.485 1.581 4.972 4.896 8.147 9.552 10.083ZM205.974 203.374c-2.1-19.696-4.2-39.405-6.313-59.265 4.289 1.404 8.464 1.606 12.804.329-2.101 19.721-4.188 39.328-6.276 58.948h-.215v-.012Z" fill="#4444FC"/></g><defs><clipPath id="clip0_54_252"><path fill="#fff" d="M0 0h410v272H0z"/></clipPath></defs></svg>