<svg width="19" height="20" viewBox="0 0 19 20" fill="none" xmlns="http://www.w3.org/2000/svg">
<path d="M8.23792 0.332675C3.6953 0.332675 0 4.14222 0 8.82528C0 13.5084 3.6953 17.3179 8.23792 17.3179C9.6266 17.3179 10.9917 16.9782 12.145 16.323C12.2374 16.4377 12.3399 16.5432 12.451 16.6385L14.8047 19.0649C15.0221 19.3171 15.2871 19.5207 15.5835 19.6634C15.88 19.8061 16.2016 19.8848 16.5286 19.8948C16.8556 19.9047 17.1812 19.8456 17.4852 19.7211C17.7893 19.5966 18.0655 19.4094 18.2968 19.1709C18.5282 18.9324 18.7098 18.6477 18.8305 18.3342C18.9513 18.0208 19.0086 17.6852 18.999 17.348C18.9893 17.0109 18.913 16.6793 18.7746 16.3737C18.6361 16.0681 18.4386 15.7949 18.194 15.5708L15.8403 13.1444C15.7257 13.0261 15.5995 12.9204 15.4638 12.8289C16.0993 11.64 16.4994 10.2569 16.4994 8.80102C16.4994 4.11795 12.8041 0.308411 8.26146 0.308411L8.23792 0.332675ZM8.23792 2.75914C11.5096 2.75914 14.1221 5.45251 14.1221 8.82528C14.1221 10.4267 13.5573 11.9069 12.5687 12.9988C12.5452 13.0231 12.5216 13.0473 12.4981 13.0716C12.3869 13.1668 12.2845 13.2724 12.1921 13.387C11.1565 14.3576 9.74428 14.9157 8.21438 14.9157C4.94275 14.9157 2.33015 12.2223 2.33015 8.84955C2.33015 5.47677 4.94275 2.7834 8.21438 2.7834L8.23792 2.75914Z" fill="#333333"/>
</svg>
