<svg width="20" height="20" viewBox="0 0 20 20" fill="none" xmlns="http://www.w3.org/2000/svg">
<path d="M8.69942 0.0247757C4.21673 0.0247757 0.57019 3.91456 0.57019 8.69627C0.57019 13.478 4.21673 17.3678 8.69942 17.3678C10.0698 17.3678 11.4169 17.0209 12.555 16.352C12.6462 16.469 12.7472 16.5768 12.8569 16.674L15.1796 19.1516C15.394 19.409 15.6556 19.617 15.9481 19.7627C16.2406 19.9084 16.558 19.9888 16.8807 19.9989C17.2034 20.009 17.5247 19.9487 17.8247 19.8216C18.1248 19.6945 18.3973 19.5033 18.6256 19.2598C18.8539 19.0163 19.0331 18.7256 19.1523 18.4055C19.2714 18.0854 19.328 17.7428 19.3185 17.3985C19.309 17.0543 19.2336 16.7157 19.097 16.4037C18.9604 16.0917 18.7655 15.8127 18.5242 15.5839L16.2015 13.1063C16.0884 12.9856 15.9639 12.8777 15.8299 12.7843C16.457 11.5703 16.8519 10.158 16.8519 8.67149C16.8519 3.88978 13.2053 0 8.72264 0L8.69942 0.0247757ZM8.69942 2.50235C11.9279 2.50235 14.506 5.25245 14.506 8.69627C14.506 10.3315 13.9486 11.8428 12.9731 12.9577C12.9498 12.9825 12.9266 13.0072 12.9034 13.032C12.7937 13.1293 12.6926 13.2371 12.6014 13.3541C11.5795 14.3451 10.1859 14.915 8.67619 14.915C5.44773 14.915 2.8696 12.1649 2.8696 8.72104C2.8696 5.27722 5.44773 2.52712 8.67619 2.52712L8.69942 2.50235Z" fill="#333333"/>
</svg>
