<svg width="19" height="28" viewBox="0 0 19 28" fill="none" xmlns="http://www.w3.org/2000/svg">
<path d="M8.23792 0.819038C3.6953 0.819038 0 5.96593 0 12.293C0 18.6201 3.6953 23.7669 8.23792 23.7669C9.6266 23.7669 10.9917 23.308 12.145 22.4229C12.2374 22.5777 12.3399 22.7204 12.451 22.849L14.8047 26.1273C15.0221 26.4679 15.2871 26.7431 15.5835 26.9359C15.88 27.1287 16.2016 27.235 16.5286 27.2484C16.8556 27.2618 17.1812 27.182 17.4852 27.0138C17.7893 26.8457 18.0655 26.5927 18.2968 26.2705C18.5282 25.9483 18.7098 25.5636 18.8305 25.1401C18.9513 24.7166 19.0086 24.2631 18.999 23.8076C18.9893 23.3522 18.913 22.9042 18.7746 22.4913C18.6361 22.0784 18.4386 21.7093 18.194 21.4066L15.8403 18.1283C15.7257 17.9686 15.5995 17.8258 15.4638 17.7021C16.0993 16.0958 16.4994 14.2272 16.4994 12.2602C16.4994 5.93314 12.8041 0.786255 8.26146 0.786255L8.23792 0.819038ZM8.23792 4.09731C11.5096 4.09731 14.1221 7.73619 14.1221 12.293C14.1221 14.4567 13.5573 16.4564 12.5687 17.9316C12.5452 17.9644 12.5216 17.9972 12.4981 18.03C12.3869 18.1586 12.2845 18.3013 12.1921 18.4561C11.1565 19.7675 9.74428 20.5215 8.21438 20.5215C4.94275 20.5215 2.33015 16.8826 2.33015 12.3258C2.33015 7.76898 4.94275 4.13009 8.21438 4.13009L8.23792 4.09731Z" fill="#333333"/>
</svg>
