<svg width="13" height="13" viewBox="0 0 13 13" fill="none" xmlns="http://www.w3.org/2000/svg">
<g clip-path="url(#clip0_12_454)">
<path d="M12.6462 9.54069L10.832 7.7265C10.1841 7.07858 9.08258 7.33777 8.82341 8.18005C8.62903 8.76321 7.98111 9.08717 7.39798 8.95756C6.10213 8.6336 4.35273 6.94899 4.02877 5.58835C3.83439 5.00519 4.22315 4.35727 4.80628 4.16292C5.64858 3.90375 5.90775 2.80227 5.25983 2.15435L3.44564 0.34016C2.9273 -0.113387 2.14979 -0.113387 1.69624 0.34016L0.465185 1.57122C-0.765872 2.86707 0.59477 6.30107 3.64002 9.34631C6.68526 12.3916 10.1193 13.817 11.4151 12.5211L12.6462 11.2901C13.0997 10.7717 13.0997 9.99424 12.6462 9.54069Z" fill="#4444FC"/>
</g>
<defs>
<clipPath id="clip0_12_454">
<rect width="13" height="13" fill="white"/>
</clipPath>
</defs>
</svg>
