<svg width="14" height="14" viewBox="0 0 14 14" fill="none" xmlns="http://www.w3.org/2000/svg">
<g clip-path="url(#clip0_12_495)">
<path d="M11.9498 2.05026C10.6276 0.728137 8.86977 0 7 0C5.13023 0 3.37236 0.728137 2.05023 2.05026C0.728109 3.37239 0 5.13023 0 7C0 8.86977 0.728109 10.6276 2.05023 11.9497C3.37236 13.2718 5.13023 14 7 14C8.86977 14 10.6276 13.2719 11.9498 11.9497C13.2719 10.6276 14 8.86977 14 7C14 5.13023 13.2719 3.37236 11.9498 2.05026ZM7 12.626C3.89777 12.626 1.37397 10.1022 1.37397 7C1.37397 6.99491 1.37413 6.98988 1.37416 6.98485C1.37416 6.98357 1.37397 6.98234 1.37397 6.98105C1.37397 6.97889 1.37424 6.97681 1.3743 6.97468C1.38794 3.90964 3.86493 1.41597 6.92355 1.37495C6.92994 1.37465 6.93629 1.374 6.94277 1.374C6.94665 1.374 6.95043 1.37446 6.95428 1.37457C6.96954 1.37446 6.98474 1.374 7.00003 1.374C10.1023 1.374 12.6261 3.89782 12.6261 7.00003C12.6261 10.1022 10.1022 12.626 7 12.626Z" fill="#4444FC"/>
<path d="M11.2735 7.33791C11.0447 7.33791 10.8593 7.15246 10.8593 6.92371C10.8593 6.69495 11.0447 6.5095 11.2735 6.5095H11.7727C11.5382 4.21055 9.67377 2.3868 7.35694 2.21558V2.65021C7.35694 2.87896 7.17149 3.06441 6.94274 3.06441C6.71398 3.06441 6.52853 2.87896 6.52853 2.65021V2.22547C4.24599 2.44915 2.42782 4.27904 2.22211 6.56673H2.66924C2.89799 6.56673 3.08344 6.75218 3.08344 6.98094C3.08344 7.20969 2.89799 7.39514 2.66924 7.39514H2.21872C2.40917 9.71966 4.26379 11.58 6.58579 11.7795V11.2544C6.58579 11.0257 6.77123 10.8402 6.99999 10.8402C7.22875 10.8402 7.4142 11.0257 7.4142 11.2544V11.7795C9.7552 11.5783 11.6211 9.68903 11.7856 7.33791H11.2735ZM8.67671 5.90898L7.2929 7.29282C7.21522 7.3705 7.10989 7.41414 7.00002 7.41414C6.89018 7.41414 6.7848 7.3705 6.70714 7.29282L4.29835 4.88403C4.13658 4.72229 4.13658 4.46003 4.29835 4.29827C4.46009 4.1365 4.72234 4.1365 4.88411 4.29827L7.00005 6.41418L8.09101 5.32322C8.25275 5.16146 8.515 5.16146 8.67677 5.32322C8.83848 5.48496 8.83848 5.74724 8.67671 5.90898Z" fill="#4444FC"/>
</g>
<defs>
<clipPath id="clip0_12_495">
<rect width="14" height="14" fill="white"/>
</clipPath>
</defs>
</svg>
