<svg width="200" height="530" viewBox="0 0 200 530" fill="none" xmlns="http://www.w3.org/2000/svg">
<g clip-path="url(#clip0_2065_102)">
<path d="M112.025 251.959L85.5886 271.573L59.1555 251.959V212.734L85.5886 193.12L112.025 212.734V251.959Z" fill="url(#paint0_linear_2065_102)" fill-opacity="0.3"/>
<path d="M53.8234 212.449V252.248L53.631 252.392L27.0026 272.151L0.181885 252.248V212.449L0.374222 212.304L27.0026 192.549L53.8234 212.449ZM53.0481 251.674V213.023L26.9997 193.698L0.957153 213.023V232.348V251.674L27.0026 270.999L53.0511 251.674H53.0481Z" fill="#FF4A03" fill-opacity="0.3"/>
<path d="M200 276.555V316.354L199.808 316.498L173.179 336.257L146.359 316.357V276.558L146.551 276.414L173.179 256.659L200 276.558V276.555ZM199.225 315.779V277.129L173.176 257.804L147.131 277.129V315.779L173.176 335.105L199.225 315.779Z" fill="#FF4A03" fill-opacity="0.3"/>
<path d="M141.414 20.5235V60.3224L141.222 60.4669L114.593 80.2257L87.7725 60.3262V20.5235L87.9648 20.379L114.593 0.624023L141.414 20.5235ZM140.639 59.7482V21.0977L114.593 1.77243L88.5477 21.0977V59.7482L114.593 79.0735L140.642 59.7482H140.639Z" fill="#FF4A03" fill-opacity="0.3"/>
<path d="M170.608 251.959L144.175 271.573L117.742 251.959V212.734L144.175 193.12L170.608 212.734V251.959Z" fill="#FF4A03" fill-opacity="0.3"/>
<path d="M141.026 188.598L114.593 208.213L88.1571 188.598V149.374L114.593 129.76L141.026 149.374V188.598Z" fill="#FF4A03" fill-opacity="0.3"/>
<path d="M82.4402 188.598L56.0071 208.213L29.571 188.598V149.374L56.0071 129.76L82.4402 149.374V188.598Z" fill="#4444FC" fill-opacity="0.3"/>
<path d="M199.612 188.598L173.179 208.213L146.743 188.598V149.374L173.179 129.76L199.612 149.374V188.598Z" fill="#4444FC" fill-opacity="0.3"/>
<path d="M141.414 276.554V316.353L114.593 336.253L87.7725 316.353V276.554L114.593 256.655L141.414 276.554ZM140.639 315.779V277.129L114.59 257.803L88.5418 277.129V315.779L114.59 335.104L140.639 315.779Z" fill="#4444FC" fill-opacity="0.3"/>
<path d="M82.4402 316.068L56.0071 335.682L29.571 316.068V276.844L56.0071 257.229L82.4402 276.844V316.068Z" fill="#FF4A03" fill-opacity="0.3"/>
<path d="M112.022 380.174L85.5886 399.788L59.1555 380.174V340.949L85.5886 321.335L112.022 340.949V380.174Z" fill="#FF4A03" fill-opacity="0.3"/>
<path d="M170.608 380.174L144.175 399.788L117.742 380.174V340.949L144.175 321.335L170.608 340.949V380.174Z" fill="url(#paint1_linear_2065_102)" fill-opacity="0.3"/>
<path d="M112.022 123.744L85.5886 143.358L59.1555 123.744V84.5188L85.5886 64.9045L112.022 84.5188V123.744Z" fill="#FF4A03" fill-opacity="0.3"/>
<path d="M53.8234 84.2337V124.033L53.631 124.177L27.0026 143.936L0.181885 124.033V84.2337L0.374222 84.0892L27.0026 64.3342L53.8234 84.2337ZM53.0481 123.458V84.8079L26.9997 65.4826L0.957153 84.8079V123.458L27.0026 142.784L53.0511 123.458H53.0481Z" fill="#4444FC" fill-opacity="0.3"/>
<path d="M170.995 84.2336V124.033L170.803 124.177L144.175 143.932L117.354 124.033V84.2336L117.546 84.0891L144.175 64.3303L170.995 84.2298V84.2336ZM170.22 123.458V84.8078L144.172 65.4825L118.123 84.8078V123.458L144.172 142.784L170.22 123.458Z" fill="#4444FC" fill-opacity="0.3"/>
<path d="M141.026 445.029L114.593 464.643L88.1571 445.029V405.804L114.593 386.19L141.026 405.804V445.029Z" fill="#4444FC" fill-opacity="0.3"/>
<path d="M82.8279 405.515V445.314L56.0071 465.214L29.1864 445.314V405.515L56.0071 385.616L82.8279 405.515ZM82.0526 444.74V406.089L56.0042 386.764L29.9587 406.089V444.74L56.0042 464.065L82.0526 444.74Z" fill="#FF4A03" fill-opacity="0.3"/>
<path d="M112.409 470.298V510.097L85.5887 529.996L58.7679 510.097V470.298L85.5887 450.398L112.409 470.298ZM111.634 509.522V470.872L85.5857 451.547L59.5403 470.872V509.522L85.5857 528.848L111.634 509.522Z" fill="#FF4A03" fill-opacity="0.3"/>
<path d="M200 405.515V445.314L173.179 465.214L146.359 445.314V405.515L173.179 385.616L200 405.515ZM199.225 444.74V406.089L173.176 386.764L147.131 406.089V444.74L173.176 464.065L199.225 444.74Z" fill="#4444FC" fill-opacity="0.3"/>
<path d="M53.8234 470.298V510.097L27.0026 529.996L0.181885 510.1V470.302L27.0026 450.402L53.8234 470.302V470.298ZM53.0481 509.522V470.872L26.9997 451.547L0.954194 470.872V509.522L26.9997 528.848L53.0481 509.522Z" fill="#4444FC" fill-opacity="0.3"/>
</g>
<defs>
<linearGradient id="paint0_linear_2065_102" x1="85.5886" y1="271.573" x2="85.5886" y2="193.12" gradientUnits="userSpaceOnUse">
<stop stop-color="white"/>
<stop offset="0.99" stop-color="white"/>
</linearGradient>
<linearGradient id="paint1_linear_2065_102" x1="144.175" y1="399.788" x2="144.175" y2="321.335" gradientUnits="userSpaceOnUse">
<stop stop-color="white"/>
<stop offset="0.99" stop-color="white"/>
</linearGradient>
<clipPath id="clip0_2065_102">
<rect width="199.818" height="529.376" fill="white" transform="translate(0.181885 0.624023)"/>
</clipPath>
</defs>
</svg>
