<svg width="186" height="186" viewBox="0 0 186 186" fill="none" xmlns="http://www.w3.org/2000/svg">
<path d="M185.963 100.097C185.741 94.9456 180.701 90.832 170.954 87.8673C163.394 85.6067 153.796 84.2355 143.419 84.0131V44.471C143.382 43.804 143.197 43.1739 142.863 42.6181C141.825 38.1339 136.822 34.5021 127.965 31.8338C119.627 29.3138 108.732 27.9426 97.2803 27.9426C85.8661 27.9426 75.0819 29.3138 66.8918 31.8338C60.1841 33.9092 52.1423 37.7633 52.1423 44.3969C52.1423 44.8046 52.1793 45.2122 52.2534 45.6199L52.6611 62.5188C28.5726 57.9235 5.33652 73.7478 0.778243 97.7992C0.259414 100.542 0 103.284 0 106.063C0 130.522 19.9008 150.423 44.3598 150.423C54.5511 150.423 64.4089 146.94 72.3025 140.491C79.2325 142.122 87.3855 143.011 96.0203 143.085C97.9103 153.351 120.146 158.057 140.862 158.057C152.276 158.057 163.06 156.649 171.25 154.092C177.958 152.017 186 148.126 186 141.492V100.801C186 100.579 186 100.319 185.963 100.097ZM135.674 64.9647C135.674 65.4465 133.895 68.0036 125.853 70.4495C118.33 72.7101 107.916 74.0442 97.3174 74.0442C88.1638 74.0442 79.1955 73.0807 72.0801 71.2648C71.9689 71.2277 71.8948 71.2277 71.7836 71.1907C68.263 68.4112 64.3718 66.1877 60.1841 64.6312L59.9247 54.1805C62.4818 55.4776 65.15 56.5152 67.9295 57.2564C75.9713 59.5912 86.3849 60.8512 97.3174 60.8512C108.732 60.8512 119.664 59.48 128.002 56.96C130.782 56.1447 133.487 55.0699 136.044 53.7358V63.4453C135.637 63.9641 135.674 64.4459 135.674 64.9647ZM69.1154 38.9863C76.6013 36.6886 86.6073 35.3915 97.2803 35.3915C107.879 35.3915 118.293 36.6886 125.816 38.9863C133.858 41.4322 135.637 43.9522 135.637 44.434C135.637 44.9528 133.821 47.5099 125.779 49.9187C118.256 52.1793 107.879 53.4764 97.2803 53.4764C87.052 53.4764 77.3425 52.2905 69.9677 50.1411C62 47.8434 59.7765 45.3234 59.5912 44.5081C59.5912 44.434 59.5541 44.434 59.5541 44.434C59.5912 43.7298 61.2959 41.358 69.1154 38.9863ZM69.2265 133.413C54.1435 147.125 30.7591 146.05 17.0472 130.967C3.33533 115.884 4.41004 92.4997 19.4931 78.7878C26.275 72.5989 35.1692 69.1895 44.3598 69.1895C48.0658 69.1895 51.7346 69.7454 55.2923 70.8201C68.1518 74.8225 77.8243 85.4955 80.5666 98.6515C81.0484 101.097 81.3078 103.617 81.3078 106.1C81.3449 116.514 76.9349 126.409 69.2265 133.413ZM78.6396 134.228C81.6414 130.559 84.0502 126.446 85.7549 122.036C88.905 122.295 92.1662 122.481 95.5756 122.518V123.185L95.798 135.748C90.0538 135.674 84.3096 135.155 78.6396 134.228ZM88.5344 101.69C90.6838 101.839 92.9444 101.913 95.2421 101.95L95.4644 115.069C92.8703 115.032 90.3132 114.921 87.8673 114.735C88.4232 111.882 88.7197 108.954 88.7197 106.063C88.7197 104.618 88.6455 103.173 88.5344 101.69ZM97.6509 94.575C97.5397 94.575 97.3915 94.575 97.2803 94.575C93.7227 94.575 90.2762 94.4268 87.0891 94.2044C85.6808 89.2385 83.4573 84.569 80.4555 80.4184C86.0144 81.1225 91.6103 81.4931 97.2433 81.4931C108.695 81.4931 119.627 80.1219 127.965 77.6019C130.745 76.7866 133.413 75.7119 135.97 74.4148V84.1243C120.072 84.569 103.729 87.9044 97.6509 94.575ZM102.543 100.467C102.543 100.43 102.543 100.393 102.58 100.319C102.913 99.3186 105.545 96.8727 113.216 94.7233C120.405 92.685 129.781 91.5732 139.639 91.5732H140.269C150.868 91.5732 161.244 92.7962 168.805 95.0938C176.698 97.4656 178.551 99.9115 178.588 100.467V100.504C178.551 101.06 176.698 103.617 168.471 106.063C160.874 108.324 150.868 109.547 140.306 109.547C130.078 109.547 120.368 108.361 112.993 106.249C105.026 103.951 102.839 101.394 102.617 100.616C102.543 100.467 102.543 100.467 102.543 100.467ZM169.101 147.051C161.615 149.386 151.572 150.683 140.899 150.683C130.189 150.683 120.183 149.423 112.771 147.162C104.952 144.753 103.321 142.27 103.321 141.714C103.321 141.677 103.321 141.677 103.321 141.64L103.136 130.893C106.1 132.338 109.176 133.45 112.363 134.265C120.146 136.304 130.041 137.452 140.195 137.452C151.646 137.452 162.504 136.081 170.806 133.561C173.511 132.746 176.105 131.671 178.588 130.411V141.529H178.625C178.625 142.048 176.921 144.605 169.101 147.051ZM178.662 119.775H178.625C178.625 120.146 178.403 120.591 178.403 120.998C178.403 121.517 176.661 124.037 168.656 126.483C161.059 128.781 150.942 130.041 140.232 130.041C119.701 130.041 105.878 125.408 102.987 121.814L102.95 118.701L102.802 110.177C105.396 111.474 108.102 112.512 110.881 113.29C118.923 115.625 129.337 116.885 140.269 116.885C151.535 116.885 162.282 115.551 170.546 113.105C173.363 112.326 176.068 111.252 178.662 109.918V119.775Z" fill="#E6E6E6"/>
<path d="M57.8495 111.326C56.1448 105.285 50.623 101.135 44.36 101.135C40.7282 101.135 37.7634 98.2068 37.7634 94.575C37.8005 90.9062 40.7282 87.9785 44.36 87.9785C47.9918 87.9785 50.9565 90.9432 50.9565 94.575C50.9565 96.6133 52.6242 98.281 54.6624 98.281C56.7007 98.281 58.3683 96.6133 58.3683 94.575C58.3683 88.312 54.2177 82.7902 48.1771 81.0855V79.4178C48.1771 77.3796 46.5094 75.7119 44.4712 75.7119C42.4329 75.7119 40.7652 77.3796 40.7652 79.4178V81.0114C33.3163 83.0126 28.8692 90.6838 30.8704 98.1327C32.501 104.247 38.0229 108.509 44.36 108.509C47.9918 108.509 50.9565 111.437 50.9565 115.069C50.9565 118.701 48.0288 121.665 44.397 121.665C40.7652 121.665 37.8005 118.738 37.8005 115.106C37.8005 113.068 36.1328 111.4 34.0946 111.4C32.0563 111.4 30.3887 113.068 30.3887 115.106C30.4257 121.443 34.6505 126.965 40.7652 128.632V131.857C40.7652 133.895 42.4329 135.562 44.4712 135.562C46.5094 135.562 48.1771 133.895 48.1771 131.857V128.595C55.626 126.483 59.9619 118.775 57.8495 111.326Z" fill="#E6E6E6"/>
</svg>
