<svg width="281" height="578" viewBox="0 0 281 578" fill="none" xmlns="http://www.w3.org/2000/svg">
<g clip-path="url(#clip0_10_139)">
<path d="M157.282 274.42L120.106 295.836L82.9335 274.42V231.593L120.106 210.177L157.282 231.593V274.42Z" fill="url(#paint0_linear_10_139)" fill-opacity="0.3"/>
<path d="M75.4349 231.281V274.736L75.1644 274.894L37.7174 296.467L0 274.736V231.281L0.27048 231.124L37.7174 209.554L75.4349 231.281ZM74.3447 274.109V231.908L37.7133 210.808L1.09024 231.908V253.009V274.109L37.7174 295.209L74.3488 274.109H74.3447Z" fill="#FF4A03" fill-opacity="0.3"/>
<path d="M281 301.275V344.73L280.729 344.888L243.283 366.461L205.565 344.734V301.28L205.836 301.122L243.283 279.552L281 301.28V301.275ZM279.91 344.103V301.902L243.278 280.802L206.651 301.902V344.103L243.278 365.203L279.91 344.103Z" fill="#FF4A03" fill-opacity="0.3"/>
<path d="M198.612 21.7273V65.1818L198.341 65.3396L160.894 86.9132L123.177 65.1859V21.7273L123.447 21.5695L160.894 0L198.612 21.7273ZM197.521 64.5548V22.3542L160.894 1.2539L124.267 22.3542V64.5548L160.894 85.6552L197.526 64.5548H197.521Z" fill="#FF4A03" fill-opacity="0.3"/>
<path d="M239.666 274.42L202.494 295.836L165.322 274.42V231.593L202.494 210.177L239.666 231.593V274.42Z" fill="#FF4A03" fill-opacity="0.3"/>
<path d="M198.067 205.24L160.894 226.656L123.718 205.24V162.413L160.894 140.997L198.067 162.413V205.24Z" fill="#FF4A03" fill-opacity="0.3"/>
<path d="M115.678 205.24L78.5059 226.656L41.3294 205.24V162.413L78.5059 140.997L115.678 162.413V205.24Z" fill="#4444FC" fill-opacity="0.3"/>
<path d="M280.455 205.24L243.283 226.656L206.106 205.24V162.413L243.283 140.997L280.455 162.413V205.24Z" fill="#4444FC" fill-opacity="0.3"/>
<path d="M198.612 301.275V344.73L160.894 366.457L123.177 344.73V301.275L160.894 279.548L198.612 301.275ZM197.521 344.103V301.902L160.89 280.802L124.259 301.902V344.103L160.89 365.203L197.521 344.103Z" fill="#4444FC" fill-opacity="0.3"/>
<path d="M115.678 344.419L78.5059 365.834L41.3294 344.419V301.591L78.5059 280.175L115.678 301.591V344.419Z" fill="#FF4A03" fill-opacity="0.3"/>
<path d="M157.278 414.412L120.106 435.828L82.9335 414.412V371.585L120.106 350.169L157.278 371.585V414.412Z" fill="#FF4A03" fill-opacity="0.3"/>
<path d="M239.666 414.412L202.494 435.828L165.322 414.412V371.585L202.494 350.169L239.666 371.585V414.412Z" fill="url(#paint1_linear_10_139)" fill-opacity="0.3"/>
<path d="M157.278 134.428L120.106 155.844L82.9335 134.428V91.6007L120.106 70.1848L157.278 91.6007V134.428Z" fill="#FF4A03" fill-opacity="0.3"/>
<path d="M75.4349 91.2893V134.744L75.1644 134.902L37.7174 156.475L0 134.744V91.2893L0.27048 91.1315L37.7174 69.562L75.4349 91.2893ZM74.3447 134.117V91.9162L37.7133 70.8159L1.09024 91.9162V134.117L37.7174 155.217L74.3488 134.117H74.3447Z" fill="#4444FC" fill-opacity="0.3"/>
<path d="M240.212 91.2893V134.744L239.941 134.902L202.494 156.471L164.777 134.744V91.2893L165.047 91.1315L202.494 69.5579L240.212 91.2851V91.2893ZM239.121 134.117V91.9162L202.49 70.8159L165.859 91.9162V134.117L202.49 155.217L239.121 134.117Z" fill="#4444FC" fill-opacity="0.3"/>
<path d="M198.067 485.224L160.894 506.64L123.718 485.224V442.397L160.894 420.981L198.067 442.397V485.224Z" fill="#4444FC" fill-opacity="0.3"/>
<path d="M116.223 442.081V485.536L78.5059 507.263L40.7885 485.536V442.081L78.5059 420.354L116.223 442.081ZM115.133 484.909V442.708L78.5017 421.608L41.8745 442.708V484.909L78.5017 506.009L115.133 484.909Z" fill="#FF4A03" fill-opacity="0.3"/>
<path d="M157.823 512.814V556.269L120.106 577.996L82.3883 556.269V512.814L120.106 491.087L157.823 512.814ZM156.733 555.642V513.441L120.102 492.341L83.4744 513.441V555.642L120.102 576.742L156.733 555.642Z" fill="#FF4A03" fill-opacity="0.3"/>
<path d="M281 442.081V485.536L243.283 507.263L205.565 485.536V442.081L243.283 420.354L281 442.081ZM279.91 484.909V442.708L243.278 421.608L206.651 442.708V484.909L243.278 506.009L279.91 484.909Z" fill="#4444FC" fill-opacity="0.3"/>
<path d="M75.4349 512.814V556.269L37.7174 577.996L0 556.273V512.818L37.7174 491.091L75.4349 512.818V512.814ZM74.3447 555.642V513.441L37.7133 492.341L1.08608 513.441V555.642L37.7133 576.742L74.3447 555.642Z" fill="#4444FC" fill-opacity="0.3"/>
</g>
<defs>
<linearGradient id="paint0_linear_10_139" x1="120.106" y1="295.836" x2="120.106" y2="210.177" gradientUnits="userSpaceOnUse">
<stop stop-color="white"/>
<stop offset="0.99" stop-color="white"/>
</linearGradient>
<linearGradient id="paint1_linear_10_139" x1="202.494" y1="435.828" x2="202.494" y2="350.169" gradientUnits="userSpaceOnUse">
<stop stop-color="white"/>
<stop offset="0.99" stop-color="white"/>
</linearGradient>
<clipPath id="clip0_10_139">
<rect width="281" height="578" fill="white"/>
</clipPath>
</defs>
</svg>
