<svg width="265" height="85" viewBox="0 0 265 85" fill="none" xmlns="http://www.w3.org/2000/svg">
<g clip-path="url(#clip0_12_417)">
<path d="M155.443 84.7839L140.866 78.8851V61.5104L155.391 55.6116L170.015 61.5056V78.8803L155.438 84.7791L155.443 84.7839ZM144.565 76.368L155.443 80.7681L166.321 76.368V64.0371L155.4 59.6322L144.57 64.0323V76.368H144.565Z" fill="#E6E6E6"/>
<path d="M155.443 69.7727L142.048 64.5079L143.392 61.0349L155.443 65.7713L167.498 61.0349L168.843 64.5079L155.443 69.7727Z" fill="#E6E6E6"/>
<path d="M157.293 67.7744H153.593V82.7761H157.293V67.7744Z" fill="#E6E6E6"/>
<path d="M46.9918 51.1682H41.1476V84.5437H46.9918V51.1682Z" fill="#E6E6E6"/>
<path d="M57.2073 84.5437H51.0437L63.5091 51.1682H67.4179L67.0318 55.9142L57.2073 84.5437Z" fill="#E6E6E6"/>
<path d="M65.3252 55.9142L64.8962 51.1682H68.8289L81.3419 84.5437H75.1784L65.3252 55.9142Z" fill="#E6E6E6"/>
<path d="M89.9842 51.1682L90.8471 73.8365V84.5437H85.0029V51.1682H89.9842Z" fill="#E6E6E6"/>
<path d="M92.6251 51.1682L102.04 76.6082L111.459 51.1682H116.688L104.108 84.5437H99.9709L87.4149 51.1682H92.6251Z" fill="#E6E6E6"/>
<path d="M119.1 51.1682V84.5437H113.232V73.8365L114.119 51.1682H119.1Z" fill="#E6E6E6"/>
<path d="M131.995 51.1682H126.151V84.5437H131.995V51.1682Z" fill="#E6E6E6"/>
<path d="M182.934 69.5516L182.886 65.2427H190.213C192.048 65.2427 193.464 64.8392 194.465 64.0274C195.466 63.2156 195.966 62.0723 195.966 60.588C195.966 58.9548 195.494 57.7683 194.546 57.0334C193.597 56.2984 192.129 55.9333 190.146 55.9333H184.712V84.5389H178.844V51.1633H190.151C193.807 51.1633 196.667 51.8935 198.736 53.3538C200.805 54.8141 201.839 57.0958 201.839 60.1941C201.839 61.568 201.51 62.8313 200.847 63.9746C200.19 65.1226 199.212 66.0545 197.925 66.7703C196.638 67.4908 195.027 67.9087 193.101 68.0288L191.328 69.542H182.934V69.5516Z" fill="#FF4A03"/>
<path d="M181.07 84.5436L183.73 79.7976H191.075C192.953 79.7976 194.374 79.3317 195.327 78.3998C196.281 77.4679 196.762 76.2622 196.762 74.7779C196.762 73.6922 196.572 72.7603 196.195 71.9822C195.814 71.204 195.232 70.6035 194.446 70.1808C193.659 69.7629 192.62 69.5515 191.328 69.5515H184.869L184.917 65.2427H193.287L194.608 66.8951C196.443 66.9239 197.949 67.3178 199.122 68.0624C200.294 68.8118 201.172 69.7773 201.748 70.9638C202.325 72.1503 202.611 73.428 202.611 74.8019C202.611 77.9963 201.591 80.4173 199.551 82.0697C197.511 83.7222 194.689 84.5436 191.08 84.5436H181.07Z" fill="#FF4A03"/>
<path d="M233.076 58.2823C231.918 55.8469 230.307 53.9735 228.243 52.6669C226.179 51.3603 223.771 50.707 221.011 50.707C218.251 50.707 215.925 51.3603 213.847 52.6669C211.768 53.9735 210.148 55.8469 208.98 58.2823C207.812 60.7178 207.23 63.6288 207.23 67.0057V68.7254C207.23 72.1023 207.817 75.0037 208.994 77.4344C210.171 79.865 211.797 81.7336 213.885 83.0402C215.968 84.3468 218.361 85.0001 221.064 85.0001C223.767 85.0001 226.231 84.3468 228.286 83.0402C230.34 81.7336 231.942 79.865 233.095 77.4344C234.249 75.0037 234.826 72.1023 234.826 68.7254V67.0057C234.826 63.6288 234.244 60.7226 233.086 58.2823H233.076ZM228.924 68.7254C228.924 71.1849 228.619 73.2648 228.014 74.9605C227.408 76.6562 226.517 77.9387 225.34 78.813C224.162 79.6825 222.737 80.1196 221.054 80.1196C219.372 80.1196 218.008 79.6825 216.821 78.813C215.639 77.9435 214.729 76.6562 214.09 74.9605C213.451 73.2648 213.136 71.1849 213.136 68.7254V66.9625C213.136 64.503 213.451 62.4279 214.08 60.737C214.71 59.0509 215.61 57.7732 216.788 56.9085C217.965 56.0439 219.372 55.6115 221.007 55.6115C222.642 55.6115 224.1 56.0439 225.282 56.9085C226.465 57.7732 227.366 59.0461 227.99 60.737C228.61 62.4279 228.924 64.4982 228.924 66.9625V68.7254Z" fill="#FF4A03"/>
<path d="M251.105 63.1773L257.997 51.1682H264.776L254.813 67.7167L265 84.5437H258.179L251.105 72.2993L244.007 84.5437H237.204L247.42 67.7167L237.433 51.1682H244.212L251.105 63.1773Z" fill="#FF4A03"/>
<path d="M4.98138 51.1682L5.84419 73.8365V84.5437H0V51.1682H4.98138Z" fill="#E6E6E6"/>
<path d="M7.62224 51.1682L17.0368 76.6082L26.4562 51.1682H31.6854L19.1056 84.5437H14.968L2.41205 51.1682H7.62224Z" fill="#E6E6E6"/>
<path d="M34.0975 51.1682V84.5437H28.2294V73.8365L29.1161 51.1682H34.0975Z" fill="#E6E6E6"/>
<path d="M165.063 28.3605C165.124 29.2732 165.186 30.1619 165.248 31.0986C182.967 29.7104 200.704 28.3221 218.466 26.9339V28.2693C210.577 29.5518 202.687 30.8392 194.693 32.141L189.254 33.0297C186.347 33.5004 183.501 33.9664 180.588 34.4371C181.646 35.7005 182.085 37.0983 181.823 38.6787C181.646 39.7355 181.17 40.653 180.398 41.3976C178.81 42.9251 176.498 43.2373 174.587 42.1805C173.471 41.5609 172.704 40.629 172.294 39.4137C171.889 38.2032 171.97 36.9974 172.47 35.7629C171.712 35.883 171.016 35.9935 170.32 36.1088C168.175 36.4594 166.03 36.8101 163.885 37.1512C163.618 37.1944 163.466 37.3049 163.342 37.5547C162.307 39.5914 160.992 41.4072 159.133 42.7618C157.783 43.7417 156.291 44.3037 154.599 44.1741C153.074 44.054 151.763 43.3959 150.59 42.4496C148.965 41.1382 147.764 39.4809 146.829 37.6219C146.672 37.3097 146.481 37.1896 146.152 37.1416C143.488 36.7236 140.828 36.2817 138.168 35.8494C138.02 35.8254 137.872 35.811 137.667 35.7821C138.273 37.2809 138.254 38.7316 137.529 40.1438C137.033 41.1093 136.285 41.8347 135.312 42.3054C133.353 43.2566 131.027 42.8146 129.554 41.215C128.687 40.2735 128.253 39.1495 128.238 37.8669C128.224 36.5843 128.677 35.4699 129.549 34.4467C126.689 33.9808 123.901 33.5292 121.074 33.0681L115.549 32.1698C107.531 30.8632 99.6038 29.5759 91.6622 28.2837V26.9483C109.414 28.3365 127.152 29.7248 144.884 31.113C144.951 30.1715 145.018 29.254 145.085 28.3077C145.68 25.8867 146.491 25.0268 146.543 24.9404C148.021 22.6731 150.075 21.232 152.692 20.5307C153.036 13.6999 153.374 6.86917 153.717 0.0144043H155.252C155.348 1.00875 155.448 1.9983 155.543 2.98784C155.882 6.46086 156.225 9.93387 156.563 13.4069C156.782 15.6454 157.002 17.8839 157.207 20.1223C157.231 20.401 157.321 20.5114 157.598 20.5835C160.119 21.2608 162.102 22.6971 163.537 24.8923C163.537 24.8923 164.505 26.0884 165.053 28.3702L165.063 28.3605Z" fill="#FF4A03"/>
<path d="M136.333 42.9202C137.72 42.118 138.716 41.0468 138.845 39.2646C146.381 45.543 151.043 53.3392 152.054 63.1915C149.608 54.2423 144.255 47.5797 136.328 42.9202H136.333Z" fill="#FF4A03"/>
<path d="M174.401 43.2085C166.678 47.9016 161.502 54.521 159.152 63.4029C159.38 60.0547 160.429 55.2079 162.984 50.5052C165.153 46.5085 167.985 43.0595 171.445 40.0669C171.936 41.6185 172.961 42.6032 174.401 43.2085Z" fill="#FF4A03"/>
<path d="M155.367 63.3934C154.718 57.2544 154.07 51.1106 153.417 44.9187C154.742 45.3558 156.034 45.4231 157.378 45.0196C156.73 51.1634 156.082 57.2784 155.438 63.3934C155.414 63.3934 155.395 63.3934 155.371 63.3934H155.367Z" fill="#FF4A03"/>
</g>
<defs>
<clipPath id="clip0_12_417">
<rect width="265" height="85" fill="white"/>
</clipPath>
</defs>
</svg>
