<svg width="269" height="293" viewBox="0 0 269 293" fill="none" xmlns="http://www.w3.org/2000/svg">
<g clip-path="url(#clip0_2065_42)">
<path d="M118.142 21.786L153.798 0.618616L189.453 21.786L189.453 64.1119L153.798 85.2793L118.142 64.1119L118.142 21.786Z" fill="#4444FC" fill-opacity="0.3"/>
<path d="M196.643 64.4234L196.643 21.4745L196.904 21.3209L232.824 2.41916e-05L269 21.4745L269 64.4234L268.74 64.5769L232.824 85.8978L196.648 64.4234L196.643 64.4234ZM197.689 22.093L197.689 63.8004L232.824 84.6563L267.959 63.8004L267.959 22.093L232.824 1.24155L197.689 22.0974L197.689 22.093Z" fill="#FF4A03" fill-opacity="0.3"/>
<path d="M39.1204 21.786L74.7759 0.618616L110.432 21.786L110.432 64.1119L74.776 85.2793L39.1204 64.1119L39.1204 21.786Z" fill="#FF4A03" fill-opacity="0.3"/>
<path d="M79.0217 90.1576L114.677 68.9947L150.333 90.1576L150.333 132.488L114.677 153.651L79.0217 132.488L79.0217 90.1576Z" fill="#FF4A03" fill-opacity="0.3"/>
<path d="M158.048 90.1576L193.703 68.9947L229.359 90.1576L229.359 132.488L193.703 153.651L158.048 132.488L158.048 90.1576Z" fill="#4444FC" fill-opacity="0.3"/>
<path d="M3.70025e-06 90.1577L35.6556 68.9947L71.3112 90.1576L71.3112 132.488L35.6556 153.651L1.11015e-05 132.488L3.70025e-06 90.1577Z" fill="#4444FC" fill-opacity="0.3"/>
<path d="M118.142 160.144L153.798 138.976L189.454 160.144L189.454 202.47L153.798 223.637L118.142 202.47L118.142 160.144Z" fill="#FF4A03" fill-opacity="0.3"/>
<path d="M196.643 202.781L196.643 159.832L196.904 159.679L232.819 138.358L268.996 159.832L268.996 202.781L268.735 202.935L232.819 224.256L196.643 202.781ZM197.689 160.451L197.689 202.158L232.824 223.014L267.959 202.158L267.959 160.451L232.824 139.595L197.689 160.451Z" fill="#4444FC" fill-opacity="0.3"/>
<path d="M38.5999 202.781L38.5999 159.832L38.8601 159.679L74.776 138.358L110.952 159.832L110.952 202.781L110.692 202.935L74.776 224.256L38.5999 202.781ZM39.6453 160.451L39.6453 202.158L74.7803 223.014L109.915 202.158L109.915 160.451L74.7803 139.595L39.6453 160.451Z" fill="#4444FC" fill-opacity="0.3"/>
<path d="M78.5012 271.526L78.5012 228.577L78.7615 228.423L114.677 207.102L150.854 228.577L150.854 271.526L150.593 271.679L114.677 293L78.5012 271.526ZM79.5467 229.195L79.5467 270.903L114.682 291.759L149.817 270.903L149.817 229.195L114.682 208.339L79.5467 229.195Z" fill="#FF4A03" fill-opacity="0.3"/>
</g>
<defs>
<clipPath id="clip0_2065_42">
<rect width="269" height="293" fill="white"/>
</clipPath>
</defs>
</svg>
