<svg width="316" height="335" viewBox="0 0 316 335" fill="none" xmlns="http://www.w3.org/2000/svg">
<g clip-path="url(#clip0_7_70)">
<path d="M138.784 24.9088L180.669 0.707207L222.555 24.9088L222.555 73.3019L180.67 97.5035L138.784 73.3019L138.784 24.9088Z" fill="#4444FC" fill-opacity="0.3"/>
<path d="M231.001 73.6581L231.001 24.5527L231.307 24.3771L273.503 -3.79488e-05L316 24.5526L316 73.658L315.694 73.8336L273.503 98.2107L231.006 73.6581L231.001 73.6581ZM232.229 25.2599L232.229 72.9458L273.503 96.7912L314.777 72.9458L314.777 25.2599L273.503 1.41945L232.229 25.2649L232.229 25.2599Z" fill="#FF4A03" fill-opacity="0.3"/>
<path d="M45.9556 24.9088L87.841 0.707238L129.726 24.9088L129.726 73.3019L87.841 97.5035L45.9556 73.302L45.9556 24.9088Z" fill="#FF4A03" fill-opacity="0.3"/>
<path d="M92.8286 103.081L134.714 78.8846L176.599 103.081L176.599 151.479L134.714 175.676L92.8286 151.479L92.8286 103.081Z" fill="#FF4A03" fill-opacity="0.3"/>
<path d="M185.662 103.081L227.547 78.8846L269.433 103.081L269.433 151.479L227.547 175.676L185.662 151.479L185.662 103.081Z" fill="#4444FC" fill-opacity="0.3"/>
<path d="M4.23066e-06 103.081L41.8854 78.8846L83.7707 103.081L83.7707 151.479L41.8854 175.676L1.26929e-05 151.479L4.23066e-06 103.081Z" fill="#4444FC" fill-opacity="0.3"/>
<path d="M138.784 183.099L180.67 158.898L222.555 183.099L222.555 231.493L180.67 255.694L138.784 231.493L138.784 183.099Z" fill="#FF4A03" fill-opacity="0.3"/>
<path d="M231.001 231.849L231.001 182.743L231.307 182.568L273.498 158.191L315.995 182.743L315.995 231.849L315.689 232.024L273.498 256.401L231.001 231.849ZM232.229 183.45L232.229 231.136L273.503 254.982L314.777 231.136L314.777 183.45L273.503 159.605L232.229 183.45Z" fill="#4444FC" fill-opacity="0.3"/>
<path d="M45.3441 231.849L45.3441 182.743L45.6499 182.568L87.841 158.191L130.338 182.743L130.338 231.849L130.032 232.024L87.841 256.401L45.3441 231.849ZM46.5722 183.45L46.5722 231.136L87.846 254.982L129.12 231.136L129.12 183.45L87.846 159.605L46.5722 183.45Z" fill="#4444FC" fill-opacity="0.3"/>
<path d="M92.2171 310.447L92.217 261.342L92.5228 261.166L134.714 236.789L177.211 261.342L177.211 310.447L176.905 310.623L134.714 335L92.2171 310.447ZM93.4451 262.049L93.4451 309.735L134.719 333.581L175.993 309.735L175.993 262.049L134.719 238.204L93.4451 262.049Z" fill="#FF4A03" fill-opacity="0.3"/>
</g>
<defs>
<clipPath id="clip0_7_70">
<rect width="316" height="335" fill="white"/>
</clipPath>
</defs>
</svg>
