<svg width="182" height="57" viewBox="0 0 182 57" fill="none" xmlns="http://www.w3.org/2000/svg">
<g clip-path="url(#clip0_4_6)">
<path d="M106.758 56.8546L96.7481 52.8989V41.2488L106.723 37.2931L116.768 41.2461V52.8989L106.758 56.8546ZM99.2876 51.2093L106.758 54.1602L114.229 51.2093V42.9384L106.726 39.9849L99.2876 42.9357V51.2093Z" fill="#FF4A03"/>
<path d="M106.758 46.7883L97.557 43.2583L98.4787 40.9288L106.758 44.1071L115.035 40.9288L115.96 43.2583L106.758 46.7883Z" fill="#FF4A03"/>
<path d="M108.027 45.4477H105.487V55.5087H108.027V45.4477Z" fill="#FF4A03"/>
<path d="M32.2745 34.3132H28.2596V56.6933H32.2745V34.3132Z" fill="#333333"/>
<path d="M39.2883 56.6933H35.0558L43.6148 34.3132H46.3021L46.0388 37.4941L39.2883 56.6933Z" fill="#333333"/>
<path d="M44.8671 37.4941L44.5688 34.3132H47.2723L55.8636 56.6933H51.6311L44.8671 37.4941Z" fill="#333333"/>
<path d="M61.7998 34.3132L62.3937 49.5144V56.6933H58.3789V34.3132H61.7998Z" fill="#333333"/>
<path d="M63.611 34.3132L70.0794 51.3732L76.5477 34.3132H80.1406L71.5009 56.6933H68.6578L60.0342 34.3132H63.611Z" fill="#333333"/>
<path d="M81.796 34.3132V56.6933H77.765V49.5144L78.3751 34.3132H81.796Z" fill="#333333"/>
<path d="M90.6533 34.3132H86.6385V56.6933H90.6533V34.3132Z" fill="#333333"/>
<path d="M125.637 46.6402L125.604 43.7502H130.635C131.895 43.7502 132.868 43.4778 133.556 42.9358C134.244 42.3937 134.588 41.6243 134.588 40.6301C134.588 39.5327 134.263 38.7395 133.613 38.2477C132.962 37.7559 131.954 37.51 130.589 37.51H126.857V56.6933H122.826V34.3132H130.589C133.099 34.3132 135.064 34.8023 136.488 35.7807C137.909 36.759 138.619 38.29 138.619 40.3683C138.619 41.2911 138.393 42.1372 137.939 42.904C137.485 43.6735 136.816 44.2975 135.932 44.7787C135.048 45.26 133.943 45.5429 132.621 45.6249L131.401 46.6402H125.637Z" fill="#4444FC"/>
<path d="M124.355 56.6933L126.182 53.5123H131.229C132.519 53.5123 133.494 53.2003 134.15 52.5737C134.806 51.9497 135.133 51.1379 135.133 50.1463C135.133 49.4192 135.002 48.7925 134.744 48.2716C134.483 47.7481 134.083 47.3462 133.54 47.0659C132.997 46.783 132.285 46.6428 131.401 46.6428H126.964L126.996 43.7528H132.744L133.65 44.8607C134.91 44.8818 135.945 45.1436 136.751 45.6433C137.557 46.1457 138.159 46.7936 138.554 47.5868C138.949 48.38 139.148 49.2394 139.148 50.1622C139.148 52.304 138.447 53.9275 137.047 55.0354C135.647 56.1433 133.707 56.6959 131.229 56.6959H124.355V56.6933Z" fill="#4444FC"/>
<path d="M160.074 39.0859C159.279 37.4518 158.172 36.1958 156.756 35.3206C155.339 34.4454 153.684 34.0064 151.787 34.0064C149.889 34.0064 148.293 34.4454 146.866 35.3206C145.439 36.1958 144.324 37.4518 143.523 39.0859C142.722 40.7199 142.319 42.6687 142.319 44.9347V46.0876C142.319 48.3536 142.722 50.2997 143.531 51.9285C144.337 53.5573 145.458 54.8106 146.89 55.6858C148.323 56.5611 149.965 57 151.819 57C153.673 57 155.366 56.5611 156.78 55.6858C158.191 54.8106 159.292 53.5573 160.082 51.9285C160.875 50.2997 161.27 48.3536 161.27 46.0876V44.9347C161.27 42.6687 160.872 40.7199 160.074 39.0859ZM157.223 46.0876C157.223 47.7375 157.016 49.131 156.6 50.268C156.183 51.405 155.57 52.267 154.764 52.8513C153.958 53.4357 152.974 53.7265 151.819 53.7265C150.663 53.7265 149.726 53.4357 148.914 52.8513C148.102 52.267 147.476 51.4076 147.038 50.268C146.6 49.131 146.383 47.7375 146.383 46.0876V44.903C146.383 43.253 146.598 41.8622 147.03 40.7305C147.463 39.5988 148.081 38.7421 148.89 38.163C149.696 37.584 150.663 37.2958 151.787 37.2958C152.91 37.2958 153.912 37.5866 154.724 38.163C155.535 38.7421 156.156 39.5988 156.584 40.7305C157.011 41.8622 157.223 43.253 157.223 44.903V46.0876Z" fill="#4444FC"/>
<path d="M172.455 42.3673L177.187 34.3132H181.844L175.002 45.4107L182 56.6933H177.313L172.455 48.4832L167.58 56.6933H162.909L169.923 45.4107L163.065 34.3132H167.722L172.455 42.3673Z" fill="#4444FC"/>
<path d="M3.42093 34.3132L4.01482 49.5144V56.6933H0V34.3132H3.42093Z" fill="#333333"/>
<path d="M5.23488 34.3132L11.7005 51.3732L18.1688 34.3132H21.7618L13.1221 56.6933H10.2789L1.6554 34.3132H5.23488Z" fill="#333333"/>
<path d="M23.4171 34.3132V56.6933H19.3862V49.5144L19.9962 34.3132H23.4171Z" fill="#333333"/>
<path d="M113.361 19.0167C113.404 19.6275 113.444 20.2251 113.487 20.8544C125.655 19.9237 137.837 18.9929 150.037 18.0596V18.9559C144.617 19.8179 139.202 20.6773 133.712 21.5498L129.977 22.1448C127.98 22.4621 126.026 22.7714 124.024 23.0887C124.75 23.9349 125.051 24.8735 124.871 25.9338C124.75 26.6451 124.422 27.2586 123.89 27.7557C122.799 28.779 121.211 28.9905 119.902 28.2792C119.136 27.8641 118.609 27.2401 118.33 26.423C118.05 25.6086 118.107 24.8022 118.451 23.9745C117.929 24.0565 117.451 24.1305 116.973 24.2046C115.5 24.4373 114.027 24.6752 112.552 24.9026C112.369 24.9317 112.265 25.0058 112.179 25.1723C111.469 26.5394 110.566 27.7557 109.287 28.6653C108.36 29.3237 107.336 29.6991 106.175 29.6119C105.127 29.5325 104.23 29.091 103.421 28.4564C102.303 27.5759 101.48 26.4653 100.838 25.2199C100.731 25.011 100.599 24.9317 100.373 24.8973C98.5433 24.6171 96.7159 24.3209 94.8885 24.0301C94.7864 24.0142 94.687 24.0036 94.5446 23.9851C94.9584 24.9925 94.9476 25.9656 94.4505 26.9122C94.1092 27.56 93.5959 28.0465 92.9295 28.3612C91.5831 29.0011 89.9842 28.7049 88.9738 27.6314C88.3772 26.9994 88.0789 26.2459 88.0709 25.3839C88.0628 24.5245 88.3718 23.7762 88.9711 23.0914C87.0094 22.7794 85.0933 22.4753 83.1504 22.1659L79.3559 21.5631C73.847 20.6879 68.4052 19.8232 62.95 18.9559V18.0596C75.1423 18.9929 87.3238 19.9237 99.5026 20.8544C99.5483 20.2225 99.594 19.609 99.6397 18.9718C100.048 17.3483 100.604 16.7692 100.642 16.7137C101.658 15.1933 103.069 14.2255 104.866 13.7575C105.1 9.17785 105.337 4.59554 105.571 0H106.624C106.691 0.668971 106.758 1.33001 106.823 1.99369C107.057 4.32319 107.29 6.65269 107.524 8.98219C107.675 10.4841 107.825 11.9833 107.965 13.4852C107.984 13.6729 108.046 13.7469 108.234 13.7945C109.964 14.2493 111.329 15.2118 112.316 16.6846C112.316 16.6846 112.979 17.4858 113.358 19.0167H113.361Z" fill="#4444FC"/>
<path d="M93.6309 28.7816C94.5849 28.2422 95.2675 27.5256 95.3561 26.3305C100.532 30.5426 103.732 35.7675 104.428 42.3752C102.749 36.373 99.0727 31.907 93.6309 28.7816Z" fill="#4444FC"/>
<path d="M119.776 28.9746C114.474 32.1238 110.916 36.5607 109.303 42.5153C109.459 40.2705 110.182 37.0208 111.937 33.8663C113.428 31.1878 115.371 28.8742 117.747 26.8672C118.083 27.9064 118.787 28.5701 119.776 28.9746Z" fill="#4444FC"/>
<path d="M106.705 42.51C106.258 38.3931 105.812 34.2735 105.364 30.1222C106.275 30.4157 107.161 30.458 108.083 30.1909C107.637 34.3132 107.194 38.4116 106.75 42.5127C106.734 42.5127 106.721 42.5127 106.705 42.5127V42.51Z" fill="#4444FC"/>
</g>
<defs>
<clipPath id="clip0_4_6">
<rect width="182" height="57" fill="white"/>
</clipPath>
</defs>
</svg>
