<svg width="13" height="13" viewBox="0 0 13 13" fill="none" xmlns="http://www.w3.org/2000/svg">
<path d="M12.8855 2.58276L8.94286 6.5L12.8855 10.4172C12.9568 10.2683 13 10.1036 13 9.92774V3.07227C13 2.89639 12.9568 2.73173 12.8855 2.58276Z" fill="#4444FC"/>
<path d="M11.8574 1.92969H1.14258C0.966701 1.92969 0.802043 1.97293 0.653076 2.0442L5.69218 7.05791C6.13773 7.50346 6.86228 7.50346 7.30783 7.05791L12.3469 2.0442C12.198 1.97293 12.0333 1.92969 11.8574 1.92969Z" fill="#4444FC"/>
<path d="M0.114512 2.58276C0.0432402 2.73173 0 2.89639 0 3.07227V9.92774C0 10.1036 0.0432402 10.2683 0.114512 10.4172L4.05714 6.5L0.114512 2.58276Z" fill="#4444FC"/>
<path d="M8.4043 7.03857L7.84639 7.59648C7.104 8.33888 5.89599 8.33888 5.15359 7.59648L4.59571 7.03857L0.653076 10.9558C0.802043 11.0271 0.966701 11.0703 1.14258 11.0703H11.8574C12.0333 11.0703 12.198 11.0271 12.3469 10.9558L8.4043 7.03857Z" fill="#4444FC"/>
</svg>
