<svg width="13" height="13" viewBox="0 0 13 13" fill="none" xmlns="http://www.w3.org/2000/svg">
<g clip-path="url(#clip0_12_503)">
<path d="M6.5 1.17117C8.23558 1.17117 8.44116 1.17779 9.12658 1.20905C9.83483 1.24137 10.5648 1.40301 11.0808 1.91905C11.6018 2.44001 11.7585 3.16283 11.7909 3.87342C11.8222 4.55884 11.8288 4.7644 11.8288 6.49997C11.8288 8.23555 11.8222 8.44114 11.7909 9.12653C11.7588 9.83117 11.5939 10.5678 11.0809 11.0808C10.5597 11.6021 9.83778 11.7584 9.12653 11.7909C8.44122 11.8222 8.23568 11.8288 6.49997 11.8288C4.76427 11.8288 4.55873 11.8222 3.87339 11.7909C3.17421 11.759 2.42793 11.5897 1.91912 11.0809C1.4009 10.5627 1.24127 9.83315 1.20903 9.12653C1.17774 8.44111 1.17114 8.23555 1.17114 6.49997C1.17114 4.7644 1.17777 4.55881 1.20903 3.87339C1.24107 3.17129 1.40801 2.43016 1.91902 1.91912C2.439 1.39912 3.16418 1.2414 3.87339 1.20903C4.55884 1.17779 4.76442 1.17117 6.5 1.17117ZM6.5 0C4.73472 0 4.51336 0.00746484 3.82004 0.0391016C2.81488 0.0849824 1.81751 0.364432 1.09096 1.09093C0.361689 1.8202 0.0849316 2.81564 0.0391016 3.82007C0.00746484 4.51336 0 4.73469 0 6.5C0 8.26531 0.00746484 8.48664 0.0391016 9.17996C0.0849063 10.1835 0.365879 11.184 1.09093 11.909C1.81931 12.6374 2.81679 12.9151 3.82004 12.9609C4.51336 12.9925 4.73472 13 6.5 13C8.26531 13 8.48664 12.9925 9.17996 12.9609C10.184 12.9151 11.1833 12.6348 11.909 11.9091C12.6386 11.1795 12.9151 10.1846 12.9609 9.17996C12.9925 8.48664 13 8.26531 13 6.5C13 4.73472 12.9925 4.51336 12.9609 3.82004C12.9151 2.81544 12.6351 1.817 11.9091 1.09098C11.1817 0.363619 10.1814 0.0848047 9.17993 0.0391016C8.48664 0.00746484 8.26531 0 6.5 0Z" fill="#4444FC"/>
<path d="M6.49999 3.16211C4.65656 3.16211 3.16214 4.6565 3.16214 6.49996C3.16214 8.3434 4.65656 9.83779 6.49999 9.83779C8.34343 9.83779 9.83784 8.3434 9.83784 6.49996C9.83784 4.65653 8.34343 3.16211 6.49999 3.16211ZM6.49999 8.66662C5.30338 8.66662 4.33333 7.69657 4.33333 6.49996C4.33333 5.30335 5.30338 4.3333 6.49999 4.3333C7.6966 4.3333 8.66665 5.30335 8.66665 6.49996C8.66665 7.69657 7.6966 8.66662 6.49999 8.66662Z" fill="#4444FC"/>
<path d="M9.96973 3.81024C10.4005 3.81024 10.7497 3.46103 10.7497 3.03024C10.7497 2.59946 10.4005 2.25024 9.96973 2.25024C9.53895 2.25024 9.18973 2.59946 9.18973 3.03024C9.18973 3.46103 9.53895 3.81024 9.96973 3.81024Z" fill="#4444FC"/>
</g>
<defs>
<clipPath id="clip0_12_503">
<rect width="13" height="13" fill="white"/>
</clipPath>
</defs>
</svg>
