<svg width="503" height="532" viewBox="0 0 503 532" fill="none" xmlns="http://www.w3.org/2000/svg">
<g opacity="0.3" clip-path="url(#clip0_144_307)">
<path d="M220.913 39.5567L287.585 1.12317L354.257 39.5567V116.408L287.585 154.841L220.913 116.408V39.5567Z" fill="#4444FC"/>
<path d="M367.701 116.973V38.9911L368.188 38.7123L435.355 0L503 38.9911V116.973L502.513 117.252L435.355 155.965L367.709 116.973H367.701ZM369.656 40.1143V115.842L435.355 153.71L501.053 115.842V40.1143L435.355 2.25424L369.656 40.1222V40.1143Z" fill="#FF4A03"/>
<path d="M73.1509 39.5567L139.823 1.12317L206.495 39.5567V116.408L139.823 154.841L73.1509 116.408V39.5567Z" fill="#FF4A03"/>
<path d="M147.762 163.699L214.434 125.273L281.106 163.699V240.558L214.434 278.984L147.762 240.558V163.699Z" fill="#FF4A03"/>
<path d="M295.532 163.699L362.204 125.273L428.876 163.699V240.558L362.204 278.984L295.532 240.558V163.699Z" fill="#4444FC"/>
<path d="M0 163.699L66.672 125.273L133.344 163.699V240.558L66.672 278.984L0 240.558V163.699Z" fill="#4444FC"/>
<path d="M220.913 290.773L287.585 252.339L354.257 290.773V367.624L287.585 406.057L220.913 367.624V290.773Z" fill="#FF4A03"/>
<path d="M367.701 368.189V290.207L368.188 289.928L435.347 251.216L502.992 290.207V368.189L502.505 368.468L435.347 407.181L367.701 368.189ZM369.656 291.33V367.058L435.355 404.926L501.053 367.058V291.33L435.355 253.462L369.656 291.33Z" fill="#4444FC"/>
<path d="M72.1775 368.189V290.207L72.6642 289.928L139.823 251.216L207.468 290.207V368.189L206.982 368.468L139.823 407.181L72.1775 368.189ZM74.1323 291.33V367.058L139.831 404.926L205.529 367.058V291.33L139.831 253.462L74.1323 291.33Z" fill="#4444FC"/>
<path d="M146.789 493.009V415.027L147.275 414.748L214.434 376.035L282.079 415.027V493.009L281.593 493.288L214.434 532L146.789 493.009ZM148.743 416.15V491.878L214.442 529.746L280.141 491.878V416.15L214.442 378.282L148.743 416.15Z" fill="#FF4A03"/>
</g>
<defs>
<clipPath id="clip0_144_307">
<rect width="503" height="532" fill="white"/>
</clipPath>
</defs>
</svg>
