<svg width="186" height="186" viewBox="0 0 186 186" fill="none" xmlns="http://www.w3.org/2000/svg">
<g clip-path="url(#clip0_54_288)">
<path d="M13.7894 45.1699L91.1838 0.486765C92.3077 -0.162418 93.6926 -0.162418 94.8166 0.486765L172.211 45.1699C173.335 45.8187 174.027 47.0183 174.027 48.3159V137.683C174.027 138.981 173.335 140.18 172.211 140.829L94.8166 185.513C93.6926 186.162 92.3077 186.162 91.1838 185.513L13.7894 140.829C12.6654 140.18 11.973 138.981 11.973 137.683V48.3163C11.973 47.0183 12.6654 45.8187 13.7894 45.1699ZM93.0002 7.82757L22.8714 48.3163L41.1691 58.8805L111.298 18.3914L93.0002 7.82757ZM93.0002 88.8046L163.129 48.3159L146.568 38.7551L76.44 79.2438L93.0002 88.8046ZM118.563 22.5862L48.4347 63.0749L69.1748 75.049L139.303 34.5603L118.563 22.5862ZM65.5416 81.341L44.8015 69.3669V90.9167L52.8104 89.1614C54.1411 88.8686 55.5234 89.3477 56.3902 90.398L65.5412 101.489V81.341H65.5416ZM166.762 54.6079L96.633 95.0966V176.075L166.762 135.586V54.6079ZM89.3673 176.075V95.0966L72.8072 85.5358V111.601C72.8072 113.134 71.8452 114.501 70.4026 115.02C70.0012 115.164 69.586 115.234 69.1751 115.234C68.1114 115.234 67.0761 114.766 66.372 113.913L52.1979 96.7339L41.9462 98.9808C40.8727 99.2159 39.7483 98.9525 38.8913 98.2623C38.0343 97.5731 37.5359 96.532 37.5359 95.4319V65.1721L19.2386 54.6083V135.586L89.3673 176.075Z" fill="#E6E6E6"/>
<path d="M137.868 134.104L154.449 124.531C156.187 123.527 158.409 124.123 159.411 125.86C160.415 127.598 159.819 129.82 158.082 130.823L141.5 140.396C139.794 141.39 137.547 140.82 136.538 139.066C135.535 137.329 136.13 135.107 137.868 134.104Z" fill="#E6E6E6"/>
<path d="M158.082 114.475L148.963 119.74C147.256 120.734 145.009 120.164 144 118.41C142.997 116.673 143.592 114.451 145.33 113.448L154.449 108.183C156.187 107.18 158.409 107.775 159.411 109.512C160.415 111.25 159.819 113.472 158.082 114.475Z" fill="#E6E6E6"/>
</g>
<defs>
<clipPath id="clip0_54_288">
<rect width="186" height="186" fill="white" transform="matrix(-1 0 0 1 186 0)"/>
</clipPath>
</defs>
</svg>
