<svg width="95" height="95" viewBox="0 0 95 95" fill="none" xmlns="http://www.w3.org/2000/svg">
<path d="M21.1301 78.7194H6.13794V72.0175C6.13971 69.6493 7.08072 67.3786 8.75454 65.7034C10.4284 64.0282 12.6983 63.0853 15.0665 63.0815H20.3879C20.9785 63.0815 21.5448 62.847 21.9624 62.4294C22.3799 62.0118 22.6145 61.4455 22.6145 60.855C22.6145 60.2645 22.3799 59.6981 21.9624 59.2806C21.5448 58.863 20.9785 58.6284 20.3879 58.6284H15.0665C11.5177 58.6335 8.11588 60.046 5.60723 62.5561C3.09858 65.0661 1.68796 68.4687 1.68481 72.0175V79.7437C1.6858 80.6528 2.04737 81.5243 2.6902 82.1672C3.33303 82.81 4.20462 83.1716 5.11372 83.1726H21.1301C21.7206 83.1726 22.287 82.938 22.7045 82.5204C23.1221 82.1028 23.3567 81.5365 23.3567 80.946C23.3567 80.3555 23.1221 79.7891 22.7045 79.3716C22.287 78.954 21.7206 78.7194 21.1301 78.7194Z" fill="#FF4A03"/>
<path d="M18.9258 52.9469C21.2881 52.946 23.5972 52.2447 25.561 50.9315C27.5247 49.6184 29.055 47.7524 29.9583 45.5696C30.8617 43.3868 31.0974 40.9851 30.6359 38.6683C30.1743 36.3515 29.0361 34.2235 27.3652 32.5536C25.6943 30.8836 23.5657 29.7466 21.2486 29.2863C18.9316 28.826 16.53 29.0631 14.3477 29.9677C12.1654 30.8722 10.3003 32.4036 8.98823 34.3681C7.67618 36.3326 6.97612 38.642 6.97656 41.0044C6.9803 44.1717 8.24064 47.2082 10.4809 49.4473C12.7212 51.6863 15.7584 52.9449 18.9258 52.9469ZM18.9258 33.5112C20.4071 33.5121 21.8549 33.9521 23.0862 34.7757C24.3175 35.5992 25.2771 36.7693 25.8436 38.138C26.41 39.5068 26.558 41.0127 26.2688 42.4655C25.9796 43.9183 25.2662 45.2528 24.2187 46.3003C23.1713 47.3477 21.8368 48.0611 20.384 48.3504C18.9311 48.6396 17.4252 48.4916 16.0565 47.9251C14.6877 47.3586 13.5176 46.3991 12.6941 45.1678C11.8706 43.9365 11.4306 42.4887 11.4297 41.0073C11.4297 39.0192 12.2195 37.1126 13.6252 35.7068C15.031 34.301 16.9377 33.5112 18.9258 33.5112Z" fill="#FF4A03"/>
<path d="M79.9336 58.6284H74.8125C74.222 58.6284 73.6556 58.863 73.2381 59.2806C72.8205 59.6981 72.5859 60.2645 72.5859 60.855C72.5859 61.4455 72.8205 62.0118 73.2381 62.4294C73.6556 62.847 74.222 63.0815 74.8125 63.0815H79.9336C82.3018 63.0851 84.5719 64.0279 86.2457 65.7032C87.9196 67.3784 88.8605 69.6493 88.8621 72.0175V78.7194H74.0703C73.4798 78.7194 72.9135 78.954 72.4959 79.3716C72.0783 79.7891 71.8438 80.3555 71.8438 80.946C71.8438 81.5365 72.0783 82.1028 72.4959 82.5204C72.9135 82.938 73.4798 83.1726 74.0703 83.1726H89.8863C90.7954 83.1716 91.667 82.81 92.3098 82.1672C92.9527 81.5243 93.3143 80.6528 93.3152 79.7437V72.0175C93.3123 68.4687 91.9017 65.0659 89.393 62.5559C86.8843 60.0458 83.4824 58.6333 79.9336 58.6284Z" fill="#FF4A03"/>
<path d="M76.0742 52.9469C78.4366 52.946 80.7456 52.2447 82.7094 50.9315C84.6732 49.6184 86.2035 47.7524 87.1068 45.5696C88.0101 43.3868 88.2459 40.9851 87.7843 38.6683C87.3227 36.3515 86.1845 34.2235 84.5136 32.5536C82.8427 30.8836 80.7142 29.7466 78.3971 29.2863C76.08 28.826 73.6785 29.0631 71.4961 29.9677C69.3138 30.8722 67.4487 32.4036 66.1367 34.3681C64.8246 36.3326 64.1246 38.642 64.125 41.0044C64.1287 44.1717 65.3891 47.2082 67.6294 49.4473C69.8697 51.6863 72.9068 52.9449 76.0742 52.9469ZM76.0742 33.5112C77.5555 33.5121 79.0034 33.9521 80.2347 34.7757C81.466 35.5992 82.4255 36.7693 82.992 38.138C83.5585 39.5068 83.7064 41.0127 83.4172 42.4655C83.128 43.9183 82.4146 45.2528 81.3672 46.3003C80.3197 47.3477 78.9852 48.0611 77.5324 48.3504C76.0796 48.6396 74.5736 48.4916 73.2049 47.9251C71.8362 47.3586 70.6661 46.3991 69.8425 45.1678C69.019 43.9365 68.579 42.4887 68.5781 41.0073C68.5781 39.0192 69.3679 37.1126 70.7737 35.7068C72.1795 34.301 74.0861 33.5112 76.0742 33.5112Z" fill="#FF4A03"/>
<path d="M52.4541 47.8918H42.5474C38.1596 47.8975 33.9531 49.6431 30.8505 52.7457C27.7478 55.8484 26.0023 60.0548 25.9966 64.4426V74.3672C25.9976 75.3675 26.3953 76.3265 27.1026 77.0339C27.8098 77.7413 28.7688 78.1393 29.7691 78.1404H65.2383C66.2386 78.1393 67.1976 77.7413 67.9048 77.0339C68.6121 76.3265 69.0098 75.3675 69.0108 74.3672V64.4456C69.0059 60.0563 67.2599 55.8482 64.1558 52.7447C61.0518 49.6413 56.8434 47.896 52.4541 47.8918ZM64.5517 73.6843H30.4475V64.4456C30.4518 61.2384 31.7278 58.1638 33.9956 55.896C36.2634 53.6282 39.338 52.3523 42.5451 52.3479H52.4541C55.6613 52.3523 58.7358 53.6282 61.0036 55.896C63.2715 58.1638 64.5474 61.2384 64.5517 64.4456V73.6843Z" fill="#FF4A03"/>
<path d="M47.5 41.2352C50.4084 41.2355 53.2515 40.3733 55.6698 38.7577C58.0882 37.142 59.9731 34.8455 61.0862 32.1586C62.1993 29.4716 62.4905 26.5149 61.9232 23.6624C61.3558 20.8099 59.9552 18.1898 57.8987 16.1333C55.8421 14.0768 53.2218 12.6764 50.3693 12.1092C47.5168 11.5419 44.5601 11.8334 41.8732 12.9466C39.1863 14.0598 36.8899 15.9448 35.2744 18.3632C33.6589 20.7817 32.7968 23.6249 32.7972 26.5332C32.8018 30.4312 34.3523 34.1682 37.1086 36.9244C39.8649 39.6806 43.602 41.2309 47.5 41.2352ZM47.5 16.2807C49.5275 16.2804 51.5095 16.8813 53.1954 18.0075C54.8814 19.1336 56.1955 20.7344 56.9717 22.6075C57.7478 24.4805 57.9511 26.5416 57.5559 28.5302C57.1606 30.5188 56.1846 32.3455 54.7511 33.7793C53.3177 35.2132 51.4913 36.1898 49.5028 36.5856C47.5143 36.9814 45.4532 36.7787 43.5799 36.0031C41.7067 35.2275 40.1055 33.9138 38.9788 32.2282C37.8522 30.5426 37.2507 28.5607 37.2504 26.5332C37.2529 23.8154 38.3335 21.2095 40.255 19.2874C42.1766 17.3653 44.7821 16.284 47.5 16.2807Z" fill="#FF4A03"/>
</svg>
