<svg width="80" height="80" viewBox="0 0 80 80" fill="none" xmlns="http://www.w3.org/2000/svg">
<path d="M39.9999 76.6667C19.6666 76.6667 3.33325 60.3334 3.33325 40C3.33325 19.6667 19.6666 3.33337 39.9999 3.33337C45.3333 3.33337 50.3333 4.33337 54.9999 6.66671C56.6666 7.33337 57.3333 9.33337 56.6666 11C55.9999 12.6667 53.9999 13.3334 52.3333 12.6667C48.3333 11 44.3333 10 39.9999 10C23.3333 10 9.99992 23.3334 9.99992 40C9.99992 56.6667 23.3333 70 39.9999 70C56.6666 70 69.9999 56.6667 69.9999 40V37C69.9999 35 71.3333 33.6667 73.3333 33.6667C75.3333 33.6667 76.6666 35 76.6666 37V40C76.6666 60.3334 60.3333 76.6667 39.9999 76.6667Z" fill="#4444FC"/>
<path d="M40.0001 50C39.0001 50 38.3334 49.6667 37.6667 49L27.6667 39C26.3334 37.6667 26.3334 35.6667 27.6667 34.3333C29.0001 33 31.0001 33 32.3334 34.3333L40.0001 42L71.0001 11C72.3334 9.66667 74.3334 9.66667 75.6668 11C77.0001 12.3333 77.0001 14.3333 75.6668 15.6667L42.3334 49C41.6667 49.6667 41.0001 50 40.0001 50Z" fill="#4444FC"/>
</svg>
