<svg width="14" height="14" viewBox="0 0 14 14" fill="none" xmlns="http://www.w3.org/2000/svg">
<path d="M7 0C4.20424 0 1.92973 2.27451 1.92973 5.07024C1.92973 8.53984 6.46713 13.6334 6.66031 13.8485C6.84176 14.0506 7.15857 14.0503 7.33969 13.8485C7.53288 13.6334 12.0703 8.53984 12.0703 5.07024C12.0702 2.27451 9.79574 0 7 0ZM7 7.62122C5.59339 7.62122 4.44905 6.47686 4.44905 5.07024C4.44905 3.66363 5.59341 2.51929 7 2.51929C8.40659 2.51929 9.55093 3.66365 9.55093 5.07027C9.55093 6.47689 8.40659 7.62122 7 7.62122Z" fill="#4444FC"/>
</svg>
