<svg width="71" height="71" viewBox="0 0 71 71" fill="none" xmlns="http://www.w3.org/2000/svg">
<path d="M62.3269 33.2812L69.7034 16.4206C70.344 14.9571 69.2701 13.3125 67.6708 13.3125H52.1395V6.65625C52.1395 5.43095 51.1462 4.4375 49.9208 4.4375H14.0392C13.1232 1.85501 10.6571 0 7.76453 0C4.0943 0 1.10828 2.98602 1.10828 6.65625V68.7812C1.10828 70.0066 2.10172 71 3.32703 71C4.55233 71 5.54578 70.0066 5.54578 68.7812V6.65625C5.54578 5.43289 6.54116 4.4375 7.76453 4.4375C8.98789 4.4375 9.98328 5.43289 9.98328 6.65625V68.7812C9.98328 70.0066 10.9767 71 12.202 71C13.4273 71 14.4208 70.0066 14.4208 68.7812V44.375H27.7333V51.0312C27.7333 52.2566 28.7267 53.25 29.952 53.25H67.6708C69.2683 53.25 70.3446 51.6069 69.7034 50.1419L62.3269 33.2812ZM14.4208 8.875H47.702V39.9375H14.4208V8.875ZM32.1708 48.8125V44.375H49.9208C51.1462 44.375 52.1395 43.3816 52.1395 42.1562V17.75H64.2783L57.8725 32.3919C57.6244 32.9588 57.6244 33.6037 57.8725 34.1706L64.2784 48.8125H32.1708Z" fill="#4444FC"/>
<path d="M36.1253 35.2452C37.7475 36.0983 39.6553 34.7186 39.3446 32.9062L38.3775 27.2675L42.4741 23.2742C43.7885 21.993 43.0618 19.7537 41.2445 19.4897L35.583 18.6669L33.0511 13.5369C32.2388 11.8909 29.8845 11.8902 29.0719 13.5369L26.54 18.6671L20.8785 19.4898C19.062 19.7537 18.3338 21.9926 19.6489 23.2743L23.7455 27.2676L22.7784 32.9063C22.4681 34.7154 24.3725 36.0999 25.9977 35.2453L31.0616 32.5831L36.1253 35.2452ZM27.9119 29.2253L28.3163 26.8679C28.4398 26.1481 28.201 25.4137 27.6781 24.904L25.9654 23.2345L28.3324 22.8906C29.055 22.7856 29.6797 22.3318 30.0029 21.6769L31.0614 19.5323L32.1199 21.6769C32.4432 22.3318 33.0677 22.7858 33.7905 22.8906L36.1575 23.2345L34.4447 24.9041C33.9218 25.4139 33.6833 26.1483 33.8067 26.868L34.2111 29.2254C30.7185 27.3893 31.403 27.3901 27.9119 29.2253Z" fill="#4444FC"/>
</svg>
