<svg width="89" height="332" viewBox="0 0 89 332" fill="none" xmlns="http://www.w3.org/2000/svg">
<g clip-path="url(#clip0_54_293)">
<path d="M0.640625 140.806L44.5 115.607L88.3594 140.806V191.199L44.5 216.393L0.640625 191.199V140.806Z" fill="#E6E6E6" fill-opacity="0.5"/>
<path d="M0 76.6975V25.5658L0.320298 25.3799L44.5 0L89 25.5658V76.6975L88.6797 76.8834L44.5 102.263L0 76.6975ZM1.28653 26.3042V75.9592L44.5053 100.787L87.7241 75.9592V26.3042L44.5 1.47669L1.28653 26.3042Z" fill="#FF4A03" fill-opacity="0.5"/>
<path d="M0 306.434V255.302L0.320298 255.116L44.5 229.737L89 255.302V306.434L88.6797 306.62L44.5 332L0 306.434ZM1.28653 256.041V305.696L44.5053 330.523L87.7241 305.696V256.041L44.5053 231.213L1.28653 256.046V256.041Z" fill="#FF4A03" fill-opacity="0.5"/>
</g>
<defs>
<clipPath id="clip0_54_293">
<rect width="89" height="332" fill="white"/>
</clipPath>
</defs>
</svg>
