<svg width="410" height="272" viewBox="0 0 410 272" fill="none" xmlns="http://www.w3.org/2000/svg">
<g clip-path="url(#clip0_54_252)">
<path d="M206.227 272L159.099 253.076V197.34L206.063 178.415L253.356 197.327V253.076L206.227 272ZM171.055 244.992L206.227 259.11L241.4 244.992V205.423L206.075 191.293L171.055 205.41V244.992Z" fill="#FF4A03"/>
<path d="M206.227 223.842L162.907 206.954L167.259 195.809L206.227 211.014L245.208 195.809L249.548 206.954L206.227 223.842Z" fill="#FF4A03"/>
<path d="M212.212 217.428H200.255V265.561H212.212V217.428Z" fill="#FF4A03"/>
<path d="M237.326 90.9787C237.528 93.9008 237.718 96.7598 237.92 99.7704C295.209 95.3176 352.56 90.8649 410 86.3994V90.6878C384.481 94.8117 358.987 98.9229 333.139 103.097L315.553 105.944C306.153 107.462 296.955 108.942 287.529 110.46C290.945 114.508 292.362 118.998 291.514 124.071C290.945 127.474 289.401 130.409 286.896 132.787C281.76 137.682 274.282 138.694 268.121 135.292C264.515 133.306 262.035 130.32 260.719 126.411C259.403 122.515 259.669 118.657 261.289 114.697C258.834 115.09 256.582 115.444 254.33 115.798C247.397 116.911 240.463 118.05 233.518 119.138C232.657 119.277 232.164 119.631 231.759 120.428C228.419 126.968 224.168 132.787 218.145 137.139C213.78 140.288 208.96 142.085 203.494 141.667C198.56 141.288 194.334 139.175 190.526 136.139C185.263 131.927 181.391 126.614 178.368 120.656C177.861 119.656 177.242 119.277 176.179 119.112C167.563 117.771 158.959 116.355 150.356 114.963C149.875 114.887 149.407 114.837 148.737 114.748C150.685 119.568 150.634 124.223 148.294 128.752C146.687 131.851 144.27 134.178 141.133 135.684C134.794 138.745 127.266 137.328 122.509 132.192C119.7 129.169 118.296 125.564 118.258 121.44C118.22 117.329 119.675 113.749 122.496 110.472C113.26 108.98 104.24 107.525 95.0922 106.045L77.2276 103.161C51.2911 98.9735 25.6708 94.837 -0.0126953 90.6878V86.3994C57.3893 90.8649 114.741 95.3176 172.079 99.7704C172.295 96.7471 172.51 93.8123 172.725 90.7637C174.648 82.9966 177.267 80.2262 177.444 79.9606C182.226 72.6868 188.869 68.0569 197.333 65.8179C198.434 43.9081 199.547 21.9857 200.648 0H205.607C205.924 3.20045 206.24 6.36294 206.544 9.53809C207.644 20.6827 208.745 31.8274 209.846 42.972C210.554 50.1572 211.263 57.3297 211.921 64.5149C212.009 65.4131 212.3 65.7673 213.186 65.995C221.334 68.1708 227.761 72.7754 232.404 79.8214C232.404 79.8214 235.529 83.6544 237.313 90.9787H237.326Z" fill="#4444FC"/>
<path d="M144.435 137.695C148.926 135.115 152.14 131.686 152.558 125.969C176.925 146.12 191.994 171.116 195.271 202.729C187.363 174.013 170.055 152.647 144.435 137.695Z" fill="#4444FC"/>
<path d="M267.526 138.619C242.564 153.685 225.812 174.911 218.221 203.399C218.955 192.659 222.359 177.112 230.62 162.021C237.642 149.207 246.789 138.138 257.974 128.536C259.555 133.508 262.87 136.683 267.526 138.619Z" fill="#4444FC"/>
<path d="M205.974 203.374C203.874 183.678 201.774 163.969 199.661 144.109C203.95 145.513 208.125 145.715 212.465 144.438C210.364 164.159 208.277 183.766 206.189 203.386C206.113 203.386 206.05 203.386 205.974 203.386V203.374Z" fill="#4444FC"/>
</g>
<defs>
<clipPath id="clip0_54_252">
<rect width="410" height="272" fill="white"/>
</clipPath>
</defs>
</svg>
