<svg width="93" height="349" viewBox="0 0 93 349" fill="none" xmlns="http://www.w3.org/2000/svg">
<g clip-path="url(#clip0_54_284)">
<path d="M0.669434 148.016L46.5 121.526L92.3307 148.016V200.99L46.5 227.474L0.669434 200.99V148.016Z" fill="#FF4A03" fill-opacity="0.5"/>
<path d="M0 80.6248V26.8749L0.334693 26.6795L46.5 0L93 26.8749V80.6248L92.6653 80.8202L46.5 107.5L0 80.6248ZM1.34435 27.6511V79.8486L46.5056 105.947L91.6668 79.8486V27.6511L46.5 1.5523L1.34435 27.6511Z" fill="#4444FC" fill-opacity="0.5"/>
<path d="M0 322.125V268.375L0.334693 268.18L46.5 241.5L93 268.375V322.125L92.6653 322.32L46.5 349L0 322.125ZM1.34435 269.151V321.349L46.5056 347.448L91.6668 321.349V269.151L46.5056 243.053L1.34435 269.157V269.151Z" fill="#4444FC" fill-opacity="0.5"/>
</g>
<defs>
<clipPath id="clip0_54_284">
<rect width="93" height="349" fill="white"/>
</clipPath>
</defs>
</svg>
